<svg width="604" height="604" viewBox="0 0 604 604" fill="none" xmlns="http://www.w3.org/2000/svg">
<path d="M603.604 303.851L603.235 308.393L574.787 313.949L601.944 323.995L601.598 328.564L573.149 334.12L600.331 344.168L599.96 348.734L565.623 335.697L565.976 331.35L594.188 325.676L567.26 315.526L567.613 311.179L603.604 303.851Z" fill="white"/>
<path d="M598.33 354.735L593.652 376.533L589.604 375.665L593.367 358.13L582.563 355.811L579.417 370.472L575.369 369.603L578.515 354.943L566.969 352.465L563.206 370L559.157 369.131L563.835 347.332L598.33 354.735Z" fill="white"/>
<path d="M591.209 385.617L586.867 398.658C586.223 400.595 585.26 402.142 583.979 403.3C582.694 404.473 581.25 405.214 579.649 405.525C578.043 405.851 576.457 405.753 574.892 405.232C573.374 404.727 572.113 403.937 571.11 402.863C570.118 401.81 569.477 400.581 569.188 399.176C567.912 400.628 566.407 401.581 564.672 402.037C562.931 402.507 561.131 402.433 559.272 401.814C557.335 401.169 555.78 400.204 554.607 398.918C553.434 397.633 552.702 396.107 552.412 394.34C552.133 392.595 552.331 390.707 553.007 388.677L557.735 374.474L591.209 385.617ZM557.221 389.202C556.809 390.442 556.665 391.624 556.789 392.75C556.924 393.897 557.324 394.891 557.991 395.733C558.658 396.574 559.564 397.186 560.711 397.568C561.827 397.939 562.927 398.022 564.012 397.815C565.096 397.607 566.054 397.134 566.886 396.396C567.717 395.657 568.326 394.706 568.713 393.544L571.94 383.85L560.294 379.973L557.221 389.202ZM572.912 393.96C572.582 394.952 572.492 395.921 572.642 396.866C572.808 397.816 573.201 398.653 573.821 399.376C574.456 400.104 575.286 400.638 576.308 400.978C577.254 401.293 578.173 401.35 579.067 401.148C579.96 400.946 580.75 400.512 581.437 399.845C582.118 399.194 582.632 398.35 582.978 397.311L585.91 388.501L575.845 385.15L572.912 393.96Z" fill="white"/>
<path d="M574.876 429.311L569.834 438.95C568.971 440.6 568.217 441.883 567.572 442.799C566.042 444.985 564.129 446.528 561.833 447.429C559.552 448.337 557.077 448.627 554.409 448.301C551.756 447.982 549.083 447.119 546.391 445.711C543.684 444.295 541.436 442.585 539.647 440.579C537.871 438.582 536.706 436.387 536.151 433.995C535.595 431.603 535.779 429.156 536.701 426.652C537.078 425.614 537.702 424.263 538.572 422.599L543.614 412.96L574.876 429.311ZM542.263 424.529C541.43 426.121 540.878 427.371 540.606 428.28C539.782 430.946 540.124 433.429 541.631 435.728C543.138 438.028 545.44 439.988 548.537 441.608C551.663 443.243 554.597 444.012 557.338 443.916C560.087 443.842 562.31 442.71 564.009 440.521C564.599 439.779 565.311 438.612 566.144 437.02L569.107 431.354L545.227 418.863L542.263 424.529Z" fill="white"/>
<path d="M557.719 460.756L545.272 479.253L541.837 476.942L551.849 462.063L542.682 455.894L534.311 468.334L530.876 466.022L539.247 453.582L529.449 446.99L519.437 461.868L516.002 459.557L528.449 441.06L557.719 460.756Z" fill="white"/>
<path d="M504.694 472.351C506.283 470.444 508.047 468.99 509.985 467.99C511.923 466.99 513.919 466.495 515.973 466.505C518.016 466.527 519.985 467.073 521.88 468.141L519.541 472.059C518.171 471.407 516.78 471.099 515.369 471.135C513.947 471.183 512.577 471.552 511.259 472.24C509.955 472.939 508.78 473.916 507.734 475.171C506.72 476.388 505.995 477.654 505.558 478.97C505.121 480.285 505.025 481.523 505.27 482.684C505.505 483.857 506.105 484.846 507.072 485.651C508.151 486.55 509.286 486.911 510.475 486.733C511.665 486.555 512.905 486.036 514.195 485.176L522.002 479.976C523.98 478.648 525.939 477.878 527.88 477.666C529.821 477.455 531.707 478.112 533.539 479.638C535.096 480.934 536.105 482.466 536.568 484.233C537.043 486.01 536.986 487.865 536.396 489.798C535.82 491.741 534.784 493.61 533.289 495.404C531.784 497.211 530.105 498.576 528.252 499.499C526.412 500.432 524.498 500.879 522.512 500.84C520.538 500.811 518.593 500.275 516.677 499.232L519.019 495.156C520.255 495.867 521.553 496.236 522.912 496.263C524.272 496.29 525.577 495.985 526.83 495.349C528.085 494.736 529.198 493.846 530.17 492.679C531.08 491.587 531.717 490.439 532.083 489.234C532.451 488.052 532.523 486.933 532.299 485.874C532.077 484.839 531.558 483.982 530.742 483.303C529.964 482.654 529.135 482.336 528.254 482.346C527.374 482.357 526.528 482.556 525.717 482.943C524.895 483.343 524.004 483.876 523.044 484.543L517.261 488.463C515.962 489.358 514.689 490.083 513.441 490.637C512.194 491.215 510.767 491.461 509.159 491.376C507.563 491.301 505.969 490.599 504.375 489.272C502.68 487.861 501.589 486.197 501.102 484.282C500.614 482.366 500.693 480.37 501.339 478.293C501.987 476.24 503.105 474.259 504.694 472.351Z" fill="white"/>
<path d="M518.576 510.755L515.526 513.872L490.309 489.199L493.359 486.081L518.576 510.755Z" fill="white"/>
<path d="M474.557 502.869C477.004 500.754 479.64 499.458 482.465 498.981C485.291 498.503 488.119 498.866 490.95 500.068C493.779 501.293 496.416 503.32 498.862 506.15C501.286 508.955 502.9 511.835 503.704 514.788C504.506 517.765 504.467 520.616 503.585 523.343C502.714 526.082 501.043 528.519 498.571 530.655C495.655 533.176 492.677 534.551 489.638 534.782C486.609 535.024 483.674 534.226 480.832 532.386L483.576 528.817C485.588 529.971 487.648 530.456 489.757 530.274C491.877 530.104 493.877 529.208 495.755 527.584C497.695 525.908 498.943 524.041 499.498 521.986C500.04 519.941 499.94 517.815 499.198 515.607C498.454 513.422 497.142 511.242 495.262 509.067C493.404 506.917 491.446 505.338 489.388 504.331C487.319 503.335 485.231 502.981 483.126 503.267C481.008 503.565 478.973 504.557 477.021 506.245C474.524 508.402 473.227 510.797 473.128 513.43C473.029 516.063 474.038 518.818 476.156 521.693L481.828 516.791L484.183 519.516L475.026 527.43C474.582 527.015 474.103 526.511 473.591 525.918C471.454 523.447 470.022 520.853 469.294 518.136C468.553 515.43 468.614 512.754 469.479 510.107C470.331 507.471 472.023 505.058 474.557 502.869Z" fill="white"/>
<path d="M480.584 544.493L476.925 546.955L446.272 534.36L461.66 557.227L458.001 559.689L438.305 530.419L441.964 527.957L472.63 540.573L457.229 517.685L460.888 515.223L480.584 544.493Z" fill="white"/>
<path d="M414.599 552.914C415.64 552.441 416.71 552.251 417.811 552.343C418.896 552.442 419.884 552.801 420.775 553.419C421.665 554.037 422.347 554.866 422.82 555.907C423.292 556.949 423.468 558.008 423.348 559.085C423.234 560.177 422.853 561.157 422.207 562.025C421.552 562.914 420.704 563.595 419.663 564.068C418.682 564.513 417.663 564.68 416.608 564.567C415.552 564.455 414.586 564.086 413.711 563.461C412.82 562.843 412.138 562.013 411.666 560.972C411.2 559.946 411.024 558.887 411.138 557.795C411.243 556.724 411.601 555.755 412.211 554.886C412.821 554.017 413.617 553.359 414.599 552.914Z" fill="white"/>
<path d="M394.408 589.38L389.98 590.454L375.781 565.185L374.76 594.122L370.314 595.226L356.114 569.957L355.1 598.918L350.647 599.998L352.256 563.304L356.494 562.276L370.731 587.285L371.923 558.532L376.161 557.504L394.408 589.38Z" fill="white"/>
<path d="M343.641 600.376L321.466 602.693L321.036 598.575L338.873 596.711L337.725 585.721L322.812 587.279L322.382 583.161L337.295 581.603L336.068 569.858L318.231 571.722L317.801 567.604L339.975 565.287L343.641 600.376Z" fill="white"/>
<path d="M311.82 603.16L298.075 603.107C296.034 603.099 294.263 602.667 292.764 601.812C291.248 600.957 290.093 599.818 289.298 598.393C288.487 596.969 288.084 595.432 288.091 593.783C288.097 592.182 288.454 590.738 289.161 589.45C289.852 588.179 290.819 587.186 292.063 586.473C290.286 585.714 288.91 584.582 287.936 583.076C286.946 581.569 286.454 579.836 286.462 577.876C286.469 575.834 286.901 574.056 287.756 572.54C288.611 571.024 289.833 569.853 291.42 569.026C292.991 568.215 294.847 567.814 296.987 567.822L311.956 567.88L311.82 603.16ZM297.803 571.991C296.497 571.986 295.328 572.218 294.297 572.688C293.25 573.174 292.431 573.865 291.839 574.761C291.248 575.657 290.95 576.709 290.945 577.918C290.94 579.094 291.206 580.165 291.741 581.13C292.276 582.096 293.025 582.858 293.986 583.417C294.948 583.976 296.041 584.258 297.266 584.263L307.482 584.303L307.53 572.028L297.803 571.991ZM298.181 588.383C297.136 588.379 296.188 588.595 295.337 589.033C294.486 589.487 293.813 590.122 293.32 590.936C292.827 591.768 292.578 592.722 292.574 593.8C292.57 594.796 292.804 595.687 293.274 596.473C293.745 597.259 294.404 597.874 295.252 598.318C296.083 598.763 297.046 598.987 298.14 598.991L307.426 599.027L307.467 588.419L298.181 588.383Z" fill="white"/>
<path d="M265.227 601.229L254.491 599.478C252.653 599.178 251.198 598.867 250.125 598.543C247.569 597.778 245.502 596.448 243.925 594.552C242.345 592.673 241.29 590.416 240.76 587.781C240.227 585.162 240.205 582.353 240.694 579.355C241.186 576.34 242.102 573.668 243.442 571.338C244.779 569.024 246.495 567.227 248.591 565.947C250.686 564.667 253.067 564.071 255.734 564.158C256.837 564.189 258.316 564.356 260.17 564.658L270.906 566.409L265.227 601.229ZM259.5 568.769C257.726 568.48 256.366 568.349 255.418 568.376C252.628 568.434 250.379 569.54 248.671 571.694C246.962 573.848 245.827 576.65 245.264 580.1C244.696 583.582 244.889 586.609 245.843 589.181C246.779 591.766 248.553 593.52 251.166 594.443C252.056 594.77 253.388 595.078 255.161 595.367L261.472 596.397L265.811 569.798L259.5 568.769Z" fill="white"/>
<path d="M229.989 594.754L208.515 588.759L209.629 584.771L226.902 589.593L229.873 578.95L215.431 574.919L216.544 570.931L230.986 574.962L234.161 563.588L216.888 558.766L218.001 554.778L239.475 560.773L229.989 594.754Z" fill="white"/>
<path d="M202.184 547.899C204.488 548.823 206.414 550.053 207.962 551.589C209.511 553.126 210.597 554.872 211.22 556.829C211.827 558.78 211.915 560.821 211.482 562.953L207.034 561.934C207.232 560.43 207.097 559.012 206.628 557.68C206.144 556.342 205.372 555.152 204.311 554.111C203.245 553.085 201.953 552.268 200.437 551.66C198.967 551.07 197.539 550.77 196.153 550.759C194.767 550.749 193.559 551.039 192.53 551.629C191.486 552.214 190.73 553.09 190.262 554.257C189.739 555.561 189.746 556.751 190.282 557.828C190.817 558.906 191.693 559.925 192.908 560.888L200.259 566.714C202.132 568.187 203.468 569.814 204.268 571.595C205.067 573.376 205.022 575.373 204.134 577.586C203.381 579.466 202.234 580.898 200.696 581.882C199.151 582.882 197.368 583.399 195.348 583.433C193.322 583.483 191.225 583.073 189.057 582.204C186.875 581.328 185.059 580.151 183.61 578.673C182.156 577.209 181.142 575.526 180.567 573.624C179.987 571.737 179.897 569.722 180.3 567.578L184.898 568.551C184.603 569.946 184.652 571.294 185.045 572.596C185.438 573.897 186.13 575.046 187.121 576.042C188.09 577.046 189.28 577.832 190.69 578.397C192.009 578.926 193.297 579.179 194.556 579.156C195.794 579.142 196.881 578.866 197.819 578.327C198.735 577.797 199.391 577.039 199.787 576.054C200.164 575.114 200.211 574.227 199.93 573.392C199.649 572.558 199.199 571.814 198.581 571.162C197.948 570.503 197.166 569.82 196.235 569.112L190.725 564.817C189.474 563.857 188.392 562.869 187.48 561.852C186.547 560.844 185.873 559.562 185.459 558.006C185.039 556.465 185.215 554.731 185.987 552.806C186.808 550.76 188.054 549.209 189.727 548.155C191.399 547.102 193.322 546.562 195.497 546.537C197.65 546.521 199.879 546.975 202.184 547.899Z" fill="white"/>
<path d="M170.226 573.109L166.318 571.174L181.971 539.556L185.879 541.491L170.226 573.109Z" fill="white"/>
<path d="M164.169 528.848C166.941 530.513 168.995 532.614 170.33 535.15C171.665 537.685 172.202 540.485 171.943 543.55C171.661 546.62 170.557 549.758 168.631 552.964C166.722 556.142 164.49 558.574 161.934 560.259C159.356 561.949 156.635 562.801 153.769 562.813C150.895 562.84 148.058 562.012 145.258 560.33C141.953 558.345 139.718 555.945 138.551 553.129C137.376 550.327 137.22 547.289 138.081 544.015L142.328 545.509C141.859 547.781 142.04 549.89 142.871 551.837C143.694 553.798 145.169 555.418 147.297 556.697C149.496 558.017 151.658 558.62 153.784 558.507C155.896 558.385 157.885 557.627 159.751 556.233C161.595 554.844 163.257 552.918 164.738 550.454C166.201 548.017 167.09 545.665 167.405 543.396C167.706 541.119 167.392 539.025 166.463 537.114C165.52 535.195 163.943 533.571 161.73 532.242C158.902 530.543 156.222 530.057 153.689 530.784C151.157 531.511 148.854 533.329 146.783 536.238L153.209 540.099L151.355 543.186L140.98 536.954C141.235 536.402 141.565 535.79 141.968 535.118C143.65 532.318 145.668 530.148 148.022 528.609C150.362 527.061 152.924 526.285 155.708 526.281C158.479 526.268 161.299 527.124 164.169 528.848Z" fill="white"/>
<path d="M126.37 547.408L122.901 544.685L125.442 511.643L108.426 533.326L104.957 530.604L126.737 502.85L130.206 505.572L127.65 538.633L144.681 516.931L148.15 519.654L126.37 547.408Z" fill="white"/>
<path d="M98.1069 487.405C98.8793 488.248 99.3924 489.207 99.6461 490.281C99.8887 491.344 99.8544 492.394 99.5433 493.433C99.2321 494.471 98.655 495.377 97.8121 496.149C96.9691 496.921 96.0169 497.417 94.9553 497.637C93.8817 497.868 92.8322 497.81 91.8068 497.465C90.7584 497.119 89.8479 496.524 89.0755 495.681C88.3472 494.886 87.8727 493.97 87.6521 492.931C87.4316 491.893 87.4824 490.86 87.8046 489.834C88.1158 488.795 88.6929 487.89 89.5358 487.118C90.3667 486.356 91.319 485.86 92.3926 485.63C93.4431 485.398 94.4761 485.437 95.4914 485.747C96.5068 486.058 97.3786 486.61 98.1069 487.405Z" fill="white"/>
<path d="M57.2052 479.645L54.8015 475.774L74.3733 454.393L46.5641 462.46L44.1266 458.581L63.6984 437.201L35.8684 445.281L33.4517 441.388L68.8133 431.458L71.1137 435.163L51.8017 456.497L79.4882 448.651L81.7886 452.356L57.2052 479.645Z" fill="white"/>
<path d="M30.9756 435.067L21.8332 414.733L25.6096 413.035L32.9636 429.392L43.0414 424.861L36.8929 411.185L40.6693 409.487L46.8178 423.163L57.5883 418.32L50.2342 401.963L54.0106 400.266L63.1529 420.6L30.9756 435.067Z" fill="white"/>
<path d="M18.581 406.382L14.3382 393.308C13.708 391.366 13.5649 389.55 13.9089 387.858C14.2478 386.151 14.9696 384.698 16.0741 383.498C17.1736 382.283 18.5079 381.42 20.077 380.911C21.5995 380.417 23.0828 380.305 24.5269 380.574C25.9505 380.834 27.1956 381.443 28.2624 382.401C28.4275 380.476 29.0734 378.816 30.2001 377.42C31.3219 376.008 32.8149 375 34.6791 374.395C36.6211 373.764 38.4456 373.619 40.1526 373.958C41.8596 374.297 43.3538 375.091 44.6351 376.341C45.8959 377.58 46.8566 379.218 47.5171 381.253L52.138 395.491L18.581 406.382ZM43.8126 383.331C43.4093 382.088 42.8235 381.05 42.0553 380.218C41.2666 379.375 40.3542 378.812 39.3183 378.53C38.2823 378.248 37.1895 378.294 36.0398 378.667C34.9213 379.03 33.9869 379.616 33.2367 380.427C32.4864 381.237 31.996 382.186 31.7652 383.274C31.5345 384.362 31.6082 385.488 31.9863 386.654L35.1401 396.371L46.8151 392.582L43.8126 383.331ZM28.3587 388.81C28.0361 387.815 27.5339 386.982 26.8523 386.311C26.1551 385.644 25.3425 385.204 24.4144 384.99C23.4708 384.781 22.4864 384.843 21.461 385.175C20.5134 385.483 19.7398 385.983 19.1403 386.676C18.5408 387.368 18.1624 388.187 18.0051 389.13C17.8428 390.059 17.9305 391.044 18.2683 392.084L21.1347 400.917L31.2251 397.642L28.3587 388.81Z" fill="white"/>
<path d="M5.85608 361.763L4.18726 351.014C3.90161 349.174 3.74622 347.694 3.72109 346.574C3.6541 343.907 4.27671 341.529 5.58891 339.441C6.88498 337.355 8.70312 335.652 11.0434 334.33C13.3674 333.01 16.0305 332.117 19.0325 331.651C22.0507 331.183 24.8752 331.224 27.5061 331.774C30.1209 332.326 32.3619 333.4 34.2293 334.994C36.0967 336.589 37.4028 338.667 38.1477 341.229C38.4608 342.288 38.7615 343.745 39.0496 345.602L40.7184 356.351L5.85608 361.763ZM34.9339 346.24C34.6583 344.465 34.3603 343.131 34.0399 342.239C33.1186 339.605 31.369 337.81 28.7909 336.855C26.2129 335.9 23.1969 335.691 19.7429 336.227C16.2567 336.768 13.4393 337.891 11.2909 339.597C9.12375 341.289 8.00733 343.52 7.94158 346.291C7.90687 347.238 8.02733 348.6 8.30296 350.375L9.28395 356.694L35.9149 352.559L34.9339 346.24Z" fill="white"/>
<path d="M0.946157 325.893L0 303.619L4.13677 303.443L4.89785 321.361L15.9374 320.892L15.3011 305.911L19.4379 305.736L20.0742 320.716L31.8725 320.215L31.1114 302.297L35.2482 302.121L36.1944 324.396L0.946157 325.893Z" fill="white"/>
<path d="M36.7514 284.816C36.5982 287.294 36.0358 289.51 35.0642 291.462C34.0925 293.415 32.7757 294.995 31.1138 296.201C29.4529 297.391 27.5425 298.116 25.3827 298.375L24.9517 293.832C26.4421 293.548 27.7458 292.974 28.8629 292.11C29.981 291.23 30.8676 290.123 31.5228 288.789C32.1618 287.454 32.5316 285.971 32.6324 284.341C32.7301 282.76 32.5661 281.309 32.1403 279.99C31.7146 278.671 31.0597 277.616 30.1759 276.825C29.293 276.018 28.2239 275.575 26.9686 275.498C25.5667 275.411 24.4385 275.791 23.5843 276.638C22.7301 277.486 22.037 278.637 21.5052 280.094L18.2851 288.903C17.4756 291.144 16.351 292.924 14.9113 294.242C13.4715 295.561 11.5616 296.146 9.18146 295.999C7.15998 295.874 5.44024 295.236 4.02223 294.085C2.58793 292.932 1.53696 291.403 0.869321 289.496C0.185383 287.588 -0.084539 285.469 0.0595543 283.138C0.204655 280.79 0.751356 278.696 1.69966 276.857C2.63165 275.016 3.9103 273.524 5.53559 272.381C7.14458 271.237 9.02997 270.519 11.1918 270.227L11.7131 274.898C10.2959 275.056 9.03137 275.526 7.91933 276.308C6.80729 277.091 5.93433 278.109 5.30045 279.362C4.65128 280.598 4.27983 281.975 4.18612 283.491C4.09846 284.909 4.26339 286.212 4.68091 287.4C5.08314 288.57 5.68746 289.516 6.49386 290.236C7.28497 290.94 8.21034 291.324 9.26999 291.39C10.2807 291.452 11.1379 291.219 11.8416 290.69C12.5452 290.16 13.1097 289.5 13.5351 288.708C13.9614 287.9 14.3642 286.943 14.7435 285.837L17.0894 279.256C17.607 277.766 18.2052 276.429 18.8839 275.243C19.5474 274.041 20.5528 272.998 21.9001 272.116C23.2311 271.233 24.9318 270.855 27.0022 270.983C29.203 271.119 31.0665 271.815 32.5925 273.071C34.1186 274.328 35.2354 275.984 35.9429 278.041C36.635 280.08 36.9045 282.338 36.7514 284.816Z" fill="white"/>
<path d="M2.73133 262.528L3.33416 258.209L38.2755 263.086L37.6726 267.405L2.73133 262.528Z" fill="white"/>
<path d="M43.0365 241.79C42.3098 244.941 40.9471 247.544 38.9483 249.597C36.9494 251.651 34.4528 253.028 31.4585 253.728C28.4519 254.41 25.1262 254.33 21.4815 253.49C17.8687 252.656 14.866 251.285 12.4735 249.376C10.0688 247.447 8.41752 245.122 7.51969 242.4C6.60595 239.675 6.51608 236.721 7.25008 233.538C8.11619 229.782 9.70782 226.914 12.025 224.934C14.3262 222.95 17.1668 221.862 20.5469 221.669L20.4393 226.17C18.1342 226.427 16.1841 227.251 14.5891 228.643C12.9783 230.032 11.8939 231.935 11.3361 234.355C10.7599 236.853 10.8546 239.096 11.62 241.083C12.3892 243.054 13.7251 244.711 15.6278 246.055C17.5183 247.379 19.8641 248.365 22.6652 249.011C25.4346 249.649 27.9467 249.767 30.2017 249.365C32.4603 248.948 34.3547 248.002 35.8847 246.527C37.4184 245.037 38.4752 243.035 39.0551 240.52C39.7964 237.305 39.4299 234.606 37.9555 232.422C36.4812 230.238 34.0404 228.611 30.6332 227.54L28.9486 234.846L25.4392 234.036L28.1587 222.243C28.7623 222.315 29.446 222.439 30.21 222.615C33.3931 223.349 36.0805 224.598 38.2722 226.36C40.4675 228.107 41.9976 230.303 42.8624 232.95C43.7308 235.581 43.7888 238.527 43.0365 241.79Z" fill="white"/>
<path d="M13.2502 212.695L14.7528 208.549L46.9353 200.642L21.0222 191.25L22.5249 187.104L55.6937 199.125L54.191 203.271L21.9855 211.17L47.9216 220.57L46.4189 224.716L13.2502 212.695Z" fill="white"/>
<path d="M61.6248 166.588C61.0615 167.583 60.308 168.367 59.3641 168.94C58.4284 169.499 57.4186 169.791 56.3348 169.815C55.2511 169.84 54.2117 169.57 53.2168 169.007C52.2218 168.444 51.4561 167.691 50.9195 166.749C50.3687 165.799 50.0993 164.783 50.1112 163.701C50.1169 162.597 50.4014 161.548 50.9647 160.553C51.4958 159.615 52.2212 158.88 53.1409 158.35C54.0606 157.82 55.0583 157.549 56.134 157.539C57.2178 157.514 58.2571 157.784 59.2521 158.347C60.2328 158.902 60.9985 159.655 61.5493 160.605C62.0939 161.533 62.3754 162.527 62.3939 163.589C62.4123 164.65 62.1559 165.65 61.6248 166.588Z" fill="white"/>
<path d="M56.4839 124.968L59.4258 121.488L85.7983 133.516L69.5515 109.547L72.4906 106.033L98.863 118.061L82.5976 94.0769L85.5553 90.5781L105.903 121.157L103.087 124.487L76.8385 112.692L92.8378 136.611L90.0224 139.942L56.4839 124.968Z" fill="white"/>
<path d="M90.1556 86.7867L106.647 71.7838L109.434 74.8465L96.1677 86.9148L103.603 95.0882L114.694 84.9984L117.481 88.0611L106.389 98.151L114.336 106.886L127.602 94.8179L130.388 97.8807L113.896 112.884L90.1556 86.7867Z" fill="white"/>
<path d="M113.387 66.138L124.472 58.0122C126.119 56.8052 127.799 56.1 129.513 55.8966C131.241 55.6836 132.847 55.9136 134.333 56.5865C135.831 57.2497 137.068 58.2466 138.044 59.5771C138.99 60.8681 139.561 62.2415 139.758 63.6974C139.958 65.1305 139.769 66.5038 139.193 67.8173C141.073 67.3707 142.853 67.4637 144.531 68.0963C146.223 68.7192 147.649 69.821 148.807 71.4018C150.014 73.0485 150.724 74.7355 150.937 76.4627C151.15 78.1899 150.864 79.8578 150.079 81.4663C149.297 83.052 148.043 84.4773 146.318 85.7422L134.244 94.5922L113.387 66.138ZM143.184 82.8755C144.237 82.103 145.039 81.2216 145.589 80.2312C146.143 79.218 146.391 78.1753 146.334 77.1032C146.277 76.031 145.891 75.0076 145.177 74.0327C144.482 73.0843 143.632 72.3807 142.627 71.9222C141.623 71.4636 140.568 71.2952 139.462 71.4171C138.357 71.5389 137.31 71.9619 136.322 72.6861L128.082 78.7261L135.339 88.6258L143.184 82.8755ZM133.138 69.9169C133.981 69.2989 134.615 68.561 135.039 67.7032C135.453 66.8322 135.617 65.9225 135.529 64.9742C135.432 64.0126 135.065 63.0972 134.428 62.2277C133.838 61.4242 133.121 60.8463 132.276 60.494C131.43 60.1417 130.535 60.0387 129.589 60.1852C128.656 60.322 127.749 60.7139 126.866 61.3609L119.377 66.8504L125.649 75.4064L133.138 69.9169Z" fill="white"/>
<path d="M152.802 39.3853L162.496 34.451C164.156 33.6064 165.514 32.9976 166.57 32.6248C169.084 31.7303 171.537 31.5812 173.93 32.1776C176.316 32.7595 178.501 33.9564 180.486 35.7684C182.464 37.5658 184.142 39.8182 185.52 42.5257C186.906 45.2477 187.747 47.9444 188.043 50.6158C188.333 53.2726 188.011 55.7366 187.077 58.0077C186.144 60.2789 184.576 62.1674 182.374 63.6733C181.465 64.3007 180.174 65.0405 178.5 65.8925L168.805 70.8269L152.802 39.3853ZM176.61 62.1806C178.212 61.3657 179.386 60.6669 180.134 60.0845C182.35 58.3886 183.51 56.1669 183.615 53.4196C183.719 50.6723 182.979 47.7412 181.393 44.6261C179.793 41.482 177.848 39.1548 175.558 37.6445C173.275 36.1122 170.807 35.7464 168.154 36.547C167.243 36.8092 165.987 37.3478 164.386 38.1628L158.687 41.0634L170.912 65.0813L176.61 62.1806Z" fill="white"/>
<path d="M183.344 24.3424L204.189 16.4317L205.658 20.3029L188.891 26.6662L192.811 36.9967L206.83 31.6766L208.299 35.5477L194.28 40.8678L198.47 51.9085L215.237 45.5452L216.707 49.4163L195.862 57.3269L183.344 24.3424Z" fill="white"/>
<path d="M235.116 44.9379C232.713 45.56 230.432 45.7115 228.275 45.3927C226.117 45.0738 224.207 44.3111 222.545 43.1047C220.899 41.8942 219.618 40.3023 218.703 38.3291L222.889 36.5118C223.621 37.8408 224.57 38.9026 225.738 39.6971C226.921 40.4876 228.248 40.9876 229.72 41.1973C231.187 41.3912 232.711 41.2835 234.293 40.8743C235.826 40.4773 237.154 39.8721 238.277 39.0586C239.399 38.2451 240.199 37.2957 240.678 36.2102C241.172 35.1206 241.261 33.9671 240.946 32.7495C240.594 31.3897 239.883 30.4349 238.813 29.8851C237.743 29.3354 236.433 29.0333 234.883 28.9787L225.51 28.6463C223.128 28.5709 221.088 28.053 219.388 27.0925C217.689 26.132 216.54 24.4975 215.943 22.1889C215.435 20.2281 215.509 18.3953 216.164 16.6904C216.816 14.9696 217.944 13.4965 219.551 12.271C221.153 11.0296 223.084 10.1164 225.346 9.53117C227.623 8.94187 229.782 8.81307 231.825 9.14479C233.864 9.4607 235.679 10.2142 237.269 11.4054C238.856 12.5807 240.123 14.1509 241.07 16.1159L236.79 18.0588C236.201 16.7603 235.362 15.7036 234.274 14.8886C233.185 14.0736 231.947 13.5589 230.559 13.3446C229.182 13.1104 227.759 13.1836 226.288 13.5642C224.912 13.9202 223.725 14.4807 222.725 15.2456C221.737 15.9906 221.025 16.8582 220.589 17.8482C220.165 18.8183 220.087 19.8173 220.353 20.8451C220.606 21.8254 221.094 22.5682 221.815 23.0732C222.536 23.5783 223.339 23.9104 224.224 24.0694C225.124 24.2244 226.159 24.3109 227.328 24.329L234.312 24.5208C235.889 24.5513 237.346 24.7056 238.683 24.9838C240.032 25.242 241.335 25.875 242.591 26.8827C243.843 27.8746 244.729 29.3747 245.249 31.3829C245.801 33.5175 245.717 35.5049 244.995 37.3451C244.274 39.1853 243.045 40.7602 241.308 42.07C239.584 43.3599 237.52 44.3159 235.116 44.9379Z" fill="white"/>
<path d="M245.004 5.82913L249.297 5.06125L255.509 39.7901L251.216 40.5579L245.004 5.82913Z" fill="white"/>
<path d="M276.304 37.7508C273.084 38.0497 270.185 37.5723 267.608 36.3188C265.031 35.0652 262.94 33.1268 261.335 30.5036C259.745 27.8626 258.777 24.6799 258.432 20.9556C258.089 17.2638 258.449 13.9825 259.511 11.1117C260.588 8.22316 262.277 5.9257 264.58 4.2193C266.88 2.49664 269.657 1.48436 272.91 1.18246C276.748 0.826226 279.97 1.43751 282.577 3.01633C285.183 4.57888 287.108 6.93459 288.351 10.0835L284.044 11.3936C283.077 9.28529 281.683 7.69236 279.86 6.61484C278.036 5.52105 275.889 5.08887 273.417 5.31831C270.863 5.5553 268.763 6.34893 267.117 7.69919C265.487 9.04794 264.333 10.8364 263.654 13.0647C262.989 15.2752 262.79 17.8117 263.056 20.674C263.318 23.5039 263.994 25.9263 265.084 27.9412C266.189 29.9547 267.682 31.4565 269.562 32.4467C271.458 33.4353 273.691 33.8104 276.26 33.5719C279.545 33.267 281.994 32.072 283.604 29.9869C285.215 27.9017 285.994 25.0736 285.942 21.5025L278.477 22.1954L278.144 18.6093L290.195 17.4908C290.316 18.0865 290.413 18.7747 290.485 19.5553C290.787 22.808 290.445 25.7513 289.459 28.3854C288.49 31.0179 286.884 33.16 284.643 34.8115C282.417 36.4616 279.638 37.4413 276.304 37.7508Z" fill="white"/>
<path d="M295.826 0.23584L300.234 0.371979L317.773 28.4894L318.624 0.940002L323.032 1.07616L321.943 36.3393L317.535 36.2032L299.996 8.06131L299.144 35.6352L294.736 35.499L295.826 0.23584Z" fill="white"/>
<path d="M354.61 31.646C353.488 31.4232 352.507 30.9536 351.667 30.2372C350.843 29.5239 350.249 28.6566 349.886 27.6352C349.523 26.6138 349.453 25.5425 349.675 24.421C349.898 23.2996 350.373 22.3364 351.099 21.5315C351.828 20.7105 352.708 20.136 353.739 19.808C354.789 19.4671 355.875 19.408 356.997 19.6308C358.054 19.8409 358.979 20.2994 359.771 21.0063C360.563 21.7132 361.133 22.5757 361.48 23.5939C361.843 24.6153 361.913 25.6866 361.691 26.8081C361.471 27.9135 360.997 28.8767 360.267 29.6976C359.557 30.5057 358.701 31.085 357.699 31.4354C356.697 31.7859 355.667 31.8561 354.61 31.646Z" fill="white"/>
<path d="M393.098 13.8016L397.322 15.5138L394.102 44.3204L411.821 21.4189L416.076 23.1177L412.856 51.9242L430.584 29L434.83 30.7215L412.106 59.5776L408.064 57.939L411.101 29.3227L393.352 51.9738L389.31 50.3352L393.098 13.8016Z" fill="white"/>
<path d="M440.589 34.2767L459.949 45.3324L457.896 48.928L442.322 40.0348L436.843 49.6301L449.864 57.0653L447.811 60.6609L434.79 53.2256L428.934 63.4805L444.508 72.3736L442.455 75.9692L423.094 64.9135L440.589 34.2767Z" fill="white"/>
<path d="M467.635 50.1776L478.779 58.2221C480.435 59.4171 481.623 60.7986 482.344 62.3668C483.079 63.9445 483.355 65.5437 483.172 67.1643C483.002 68.7945 482.435 70.2783 481.469 71.6159C480.532 72.9138 479.402 73.8803 478.077 74.5155C476.775 75.1469 475.411 75.3908 473.983 75.2469C474.987 76.8981 475.447 78.6197 475.362 80.4117C475.29 82.2133 474.681 83.9086 473.534 85.4978C472.339 87.1533 470.952 88.3483 469.375 89.0828C467.797 89.8173 466.122 90.0587 464.35 89.8068C462.6 89.5512 460.858 88.7973 459.123 87.5449L446.986 78.7834L467.635 50.1776ZM460.886 83.6803C461.945 84.4451 463.031 84.9366 464.142 85.1548C465.277 85.3693 466.345 85.2845 467.348 84.9002C468.35 84.516 469.205 83.8339 469.913 82.8538C470.601 81.9003 471.009 80.8751 471.136 79.7783C471.263 78.6814 471.098 77.6259 470.642 76.6116C470.185 75.5973 469.46 74.7316 468.467 74.0147L460.183 68.035L452.999 77.9875L460.886 83.6803ZM470.121 70.1324C470.969 70.7442 471.866 71.1199 472.813 71.2594C473.769 71.3857 474.685 71.2612 475.56 70.8858C476.445 70.4972 477.203 69.8658 477.834 68.9918C478.417 68.1839 478.746 67.3235 478.821 66.4106C478.896 65.4977 478.718 64.6139 478.287 63.7592C477.87 62.9141 477.218 62.1713 476.33 61.5308L468.802 56.0961L462.592 64.6977L470.121 70.1324Z" fill="white"/>
<path d="M504.91 79.1929L512.602 86.8849C513.919 88.2015 514.918 89.3045 515.599 90.1938C517.228 92.3073 518.129 94.5941 518.302 97.0541C518.487 99.5026 518.025 101.951 516.916 104.4C515.819 106.836 514.196 109.129 512.048 111.277C509.888 113.437 507.584 115.071 505.135 116.18C502.699 117.277 500.256 117.733 497.807 117.549C495.359 117.364 493.078 116.457 490.964 114.829C490.087 114.159 488.984 113.16 487.655 111.832L479.964 104.14L504.91 79.1929ZM490.601 108.886C491.871 110.157 492.899 111.058 493.684 111.589C495.983 113.171 498.454 113.587 501.099 112.836C503.744 112.086 506.302 110.475 508.773 108.003C511.268 105.508 512.879 102.939 513.607 100.294C514.358 97.6489 513.942 95.1889 512.36 92.9137C511.828 92.1283 510.927 91.1004 509.657 89.83L505.135 85.3084L486.079 104.365L490.601 108.886Z" fill="white"/>
<path d="M529.517 104.611L543.471 121.998L540.242 124.59L529.017 110.603L520.4 117.519L529.785 129.213L526.556 131.805L517.171 120.111L507.961 127.502L519.186 141.489L515.957 144.081L502.002 126.693L529.517 104.611Z" fill="white"/>
<path d="M525.156 159.174C523.816 157.084 522.961 154.964 522.591 152.815C522.221 150.665 522.351 148.613 522.979 146.657C523.616 144.716 524.729 143.003 526.318 141.517L529.35 144.928C528.316 146.038 527.603 147.272 527.212 148.628C526.83 149.999 526.768 151.416 527.028 152.88C527.301 154.334 527.879 155.749 528.761 157.124C529.616 158.457 530.605 159.53 531.728 160.343C532.851 161.156 534.003 161.62 535.183 161.736C536.372 161.866 537.496 161.591 538.555 160.912C539.737 160.154 540.423 159.181 540.611 157.992C540.8 156.804 540.679 155.465 540.247 153.976L537.641 144.966C536.97 142.68 536.826 140.58 537.208 138.665C537.591 136.751 538.786 135.15 540.793 133.863C542.498 132.769 544.263 132.268 546.087 132.359C547.925 132.441 549.676 133.055 551.342 134.199C553.021 135.334 554.491 136.884 555.752 138.85C557.022 140.83 557.817 142.842 558.139 144.887C558.475 146.922 558.325 148.882 557.689 150.764C557.067 152.638 555.97 154.331 554.398 155.844L551.217 152.383C552.267 151.418 553.01 150.292 553.445 149.004C553.88 147.716 553.983 146.379 553.754 144.993C553.547 143.612 553.034 142.282 552.214 141.003C551.446 139.807 550.544 138.853 549.505 138.142C548.489 137.435 547.443 137.029 546.366 136.924C545.312 136.824 544.339 137.061 543.445 137.634C542.593 138.18 542.039 138.875 541.784 139.718C541.529 140.561 541.464 141.427 541.588 142.317C541.722 143.221 541.962 144.231 542.31 145.348L544.305 152.043C544.768 153.551 545.075 154.984 545.228 156.341C545.403 157.703 545.208 159.138 544.642 160.646C544.09 162.145 542.941 163.455 541.195 164.575C539.339 165.765 537.424 166.304 535.451 166.193C533.477 166.081 531.598 165.404 529.812 164.163C528.049 162.926 526.497 161.263 525.156 159.174Z" fill="white"/>
<path d="M565.807 157.132L567.871 160.973L536.792 177.671L534.728 173.829L565.807 157.132Z" fill="white"/>
<path d="M544.677 195.728C543.384 192.764 542.929 189.861 543.312 187.021C543.694 184.182 544.88 181.588 546.868 179.242C548.877 176.904 551.596 174.988 555.025 173.492C558.423 172.01 561.652 171.323 564.711 171.432C567.791 171.549 570.503 172.434 572.845 174.085C575.202 175.73 577.033 178.049 578.339 181.043C579.88 184.577 580.31 187.828 579.628 190.799C578.961 193.763 577.327 196.329 574.726 198.497L572.132 194.817C573.831 193.238 574.907 191.415 575.359 189.347C575.826 187.272 575.563 185.097 574.571 182.821C573.545 180.471 572.134 178.725 570.335 177.585C568.544 176.46 566.483 175.924 564.155 175.978C561.847 176.04 559.376 176.646 556.741 177.795C554.136 178.932 552.048 180.333 550.476 181.998C548.91 183.679 547.952 185.568 547.601 187.663C547.256 189.773 547.6 192.011 548.632 194.377C549.951 197.401 551.853 199.351 554.338 200.227C556.823 201.103 559.753 200.957 563.128 199.788L560.13 192.916L563.431 191.476L568.27 202.57C567.743 202.871 567.119 203.179 566.401 203.492C563.407 204.798 560.504 205.396 557.694 205.285C554.89 205.19 552.353 204.336 550.082 202.725C547.818 201.129 546.016 198.797 544.677 195.728Z" fill="white"/>
<path d="M586.382 202.563L587.632 206.792L566.414 232.249L592.847 224.437L594.096 228.666L560.263 238.666L559.013 234.437L580.254 208.973L553.798 216.792L552.548 212.563L586.382 202.563Z" fill="white"/>
<path d="M574.812 268.658C574.676 267.523 574.818 266.445 575.238 265.424C575.66 264.419 576.301 263.585 577.159 262.923C578.017 262.26 579.014 261.861 580.149 261.725C581.284 261.589 582.347 261.741 583.337 262.181C584.344 262.62 585.163 263.278 585.795 264.156C586.445 265.049 586.838 266.063 586.975 267.198C587.103 268.268 586.954 269.289 586.528 270.262C586.102 271.234 585.459 272.044 584.599 272.69C583.741 273.352 582.744 273.751 581.609 273.888C580.49 274.022 579.427 273.87 578.42 273.431C577.432 273.007 576.615 272.373 575.971 271.529C575.327 270.685 574.94 269.728 574.812 268.658Z" fill="white"/>
</svg>
