<svg width="624" height="620" viewBox="0 0 624 620" fill="none" xmlns="http://www.w3.org/2000/svg">
<path d="M563.2 335.406C563.766 329.781 565.501 325.051 568.406 321.216C571.312 317.38 575.114 314.614 579.814 312.916C584.538 311.247 589.859 310.71 595.776 311.305C601.693 311.9 606.786 313.484 611.057 316.058C615.351 318.661 618.54 322.131 620.623 326.468C622.706 330.805 623.465 335.786 622.899 341.411C622.464 345.735 621.318 349.533 619.461 352.804C617.629 356.104 615.203 358.767 612.185 360.796C609.191 362.853 605.739 364.261 601.83 365.021L600.41 356.355C604.614 355.598 607.974 353.9 610.491 351.258C613.035 348.62 614.531 345.071 614.979 340.614C615.382 336.607 614.805 333.146 613.25 330.229C611.694 327.312 609.327 324.997 606.149 323.283C602.969 321.596 599.136 320.528 594.652 320.077C590.274 319.636 586.384 319.942 582.982 320.993C579.606 322.047 576.879 323.85 574.8 326.401C572.744 328.982 571.518 332.249 571.12 336.202C570.672 340.66 571.418 344.434 573.359 347.523C575.326 350.616 578.293 352.951 582.262 354.529L579.145 362.739C575.465 361.216 572.35 359.147 569.799 356.532C567.272 353.946 565.425 350.853 564.26 347.251C563.118 343.679 562.765 339.731 563.2 335.406Z" fill="white"/>
<path d="M615.332 381.037L613.084 389.089L565.195 375.721L558.183 400.841L550.593 398.722L559.853 365.55L615.332 381.037Z" fill="white"/>
<path d="M539.738 418.767C542.19 413.673 545.435 409.819 549.475 407.205C553.514 404.592 558.033 403.29 563.031 403.298C568.041 403.341 573.225 404.652 578.583 407.231C583.942 409.81 588.189 413.038 591.324 416.915C594.472 420.827 596.285 425.177 596.763 429.964C597.241 434.752 596.254 439.693 593.802 444.787C591.351 449.881 588.111 453.722 584.083 456.312C580.043 458.925 575.518 460.21 570.508 460.166C565.511 460.158 560.333 458.865 554.974 456.286C549.616 453.707 545.363 450.461 542.215 446.549C539.079 442.672 537.272 438.34 536.794 433.553C536.305 428.789 537.286 423.861 539.738 418.767ZM574.624 415.181C570.611 413.25 566.826 412.198 563.27 412.025C559.701 411.876 556.499 412.657 553.662 414.37C550.849 416.094 548.564 418.783 546.806 422.435C545.095 425.991 544.472 429.376 544.938 432.589C545.416 435.838 546.856 438.78 549.258 441.416C551.647 444.075 554.837 446.365 558.825 448.284C562.862 450.227 566.671 451.291 570.252 451.475C573.833 451.66 577.03 450.89 579.842 449.166C582.679 447.453 584.976 444.771 586.734 441.118C588.457 437.538 589.079 434.124 588.601 430.875C588.111 427.65 586.659 424.702 584.245 422.031C581.844 419.395 578.637 417.112 574.624 415.181Z" fill="white"/>
<path d="M513.314 461.98C515.806 458.683 518.621 456.13 521.758 454.323C524.917 452.532 528.211 451.579 531.641 451.463C535.076 451.385 538.414 452.187 541.656 453.868L537.452 461.62C535.247 460.69 533.041 460.292 530.832 460.428C528.608 460.586 526.509 461.239 524.537 462.389C522.565 463.54 520.823 465.115 519.312 467.114C517.913 468.965 516.917 470.903 516.323 472.928C515.728 474.952 515.639 476.84 516.054 478.591C516.453 480.363 517.397 481.811 518.886 482.937C520.46 484.127 522.102 484.565 523.809 484.251C525.522 483.974 527.347 483.13 529.283 481.719L541.66 472.572C544.714 470.3 547.836 468.866 551.028 468.27C554.219 467.674 557.485 468.637 560.825 471.162C563.57 473.236 565.393 475.733 566.294 478.654C567.217 481.59 567.256 484.678 566.412 487.918C565.574 491.195 563.981 494.387 561.633 497.493C559.302 500.578 556.672 502.952 553.743 504.616C550.799 506.301 547.697 507.199 544.438 507.31C541.162 507.442 537.887 506.756 534.613 505.25L538.802 497.186C540.783 498.147 542.803 498.571 544.862 498.456C546.926 498.378 548.875 497.812 550.708 496.757C552.541 495.702 554.141 494.271 555.508 492.462C556.762 490.803 557.635 489.073 558.127 487.272C558.618 485.471 558.67 483.789 558.281 482.224C557.892 480.66 557.07 479.404 555.815 478.455C554.113 477.169 552.325 476.837 550.45 477.46C548.581 478.12 546.537 479.299 544.317 480.998L535.509 487.678C533.359 489.328 531.271 490.675 529.246 491.719C527.205 492.783 524.851 493.311 522.184 493.301C519.523 493.329 516.82 492.305 514.076 490.231C511.097 487.981 509.147 485.253 508.225 482.05C507.309 478.884 507.321 475.551 508.262 472.05C509.186 468.571 510.871 465.214 513.314 461.98Z" fill="white"/>
<path d="M537.543 524.799L510.685 549.956L505.298 544.205L526.055 524.763L515.008 512.968L497.754 529.129L492.367 523.378L509.621 507.217L497.452 494.226L476.696 513.668L471.309 507.917L498.167 482.76L537.543 524.799Z" fill="white"/>
<path d="M440.742 544.857C442.493 543.89 444.318 543.417 446.217 543.435C448.128 543.477 449.909 543.972 451.558 544.92C453.185 545.881 454.474 547.225 455.427 548.953C456.393 550.704 456.849 552.524 456.794 554.412C456.716 556.313 456.178 558.071 455.182 559.687C454.185 561.303 452.811 562.594 451.059 563.56C449.425 564.461 447.682 564.89 445.83 564.845C443.978 564.801 442.251 564.292 440.648 563.318C439.022 562.358 437.725 561.002 436.759 559.251C435.806 557.523 435.357 555.715 435.412 553.827C435.444 551.952 435.928 550.207 436.865 548.594C437.815 547.004 439.108 545.758 440.742 544.857Z" fill="white"/>
<path d="M369.606 555.359C375.11 554.067 380.147 554.173 384.718 555.675C389.289 557.178 393.14 559.876 396.272 563.77C399.385 567.697 401.62 572.554 402.978 578.344C404.336 584.133 404.492 589.466 403.444 594.34C402.377 599.247 400.13 603.39 396.704 606.768C393.279 610.147 388.814 612.481 383.31 613.773C379.078 614.765 375.114 614.915 371.418 614.221C367.702 613.559 364.395 612.129 361.497 609.933C358.579 607.769 356.126 604.962 354.139 601.511L361.874 597.355C363.954 601.085 366.652 603.711 369.967 605.234C373.289 606.783 377.131 607.046 381.492 606.023C385.412 605.103 388.499 603.434 390.753 601.015C393.007 598.597 394.428 595.606 395.017 592.044C395.58 588.489 395.346 584.517 394.317 580.129C393.312 575.846 391.76 572.265 389.661 569.389C387.568 566.538 384.977 564.544 381.889 563.406C378.781 562.3 375.293 562.201 371.424 563.108C367.063 564.131 363.736 566.062 361.443 568.901C359.157 571.765 357.912 575.331 357.708 579.597L348.931 579.314C349.176 575.34 350.122 571.721 351.767 568.459C353.392 565.229 355.719 562.479 358.746 560.207C361.754 557.968 365.374 556.351 369.606 555.359Z" fill="white"/>
<path d="M343.264 619.441L334.918 619.924L332.042 570.287L306.005 571.796L305.55 563.929L339.932 561.937L343.264 619.441Z" fill="white"/>
<path d="M282.194 560.147C287.81 560.799 292.513 562.607 296.303 565.571C300.093 568.534 302.801 572.379 304.426 577.105C306.022 581.854 306.477 587.182 305.791 593.089C305.105 598.996 303.443 604.065 300.804 608.295C298.135 612.549 294.617 615.684 290.248 617.7C285.88 619.716 280.888 620.398 275.272 619.746C269.657 619.094 264.967 617.287 261.203 614.327C257.413 611.363 254.72 607.507 253.124 602.757C251.499 598.032 251.029 592.715 251.715 586.808C252.401 580.901 254.078 575.821 256.747 571.567C259.386 567.337 262.89 564.213 267.258 562.197C271.6 560.178 276.579 559.494 282.194 560.147ZM296.985 591.945C297.498 587.522 297.256 583.601 296.257 580.183C295.231 576.762 293.446 573.991 290.9 571.869C288.351 569.775 285.064 568.494 281.038 568.026C277.117 567.571 273.715 568.088 270.83 569.579C267.916 571.093 265.606 573.415 263.9 576.546C262.168 579.673 261.046 583.436 260.536 587.833C260.019 592.283 260.258 596.23 261.254 599.675C262.25 603.119 264.022 605.889 266.571 607.984C269.117 610.105 272.403 611.399 276.429 611.867C280.376 612.325 283.806 611.798 286.72 610.284C289.608 608.767 291.919 606.431 293.655 603.277C295.361 600.146 296.471 596.369 296.985 591.945Z" fill="white"/>
<path d="M233.045 549.255C236.977 550.531 240.309 552.355 243.044 554.729C245.77 557.127 247.748 559.928 248.98 563.131C250.178 566.352 250.512 569.769 249.985 573.382L241.283 571.946C241.441 569.558 241.095 567.343 240.244 565.3C239.367 563.25 238.063 561.481 236.331 559.993C234.599 558.506 232.54 557.376 230.156 556.602C227.949 555.886 225.792 555.578 223.685 555.679C221.577 555.78 219.764 556.313 218.246 557.278C216.702 558.235 215.641 559.601 215.065 561.377C214.456 563.253 214.579 564.948 215.434 566.459C216.256 567.987 217.651 569.435 219.618 570.802L232.311 579.506C235.457 581.648 237.834 584.129 239.441 586.95C241.049 589.771 241.207 593.172 239.914 597.155C238.853 600.427 237.089 602.966 234.624 604.774C232.151 606.606 229.246 607.654 225.908 607.917C222.537 608.196 219 607.735 215.297 606.533C211.619 605.34 208.515 603.631 205.984 601.408C203.428 599.177 201.565 596.54 200.394 593.496C199.197 590.445 198.775 587.125 199.126 583.538L208.117 584.859C207.856 587.045 208.117 589.092 208.9 591C209.649 592.925 210.821 594.581 212.418 595.969C214.014 597.356 215.89 598.399 218.046 599.099C220.025 599.741 221.945 600 223.808 599.875C225.671 599.751 227.277 599.249 228.628 598.37C229.979 597.491 230.897 596.303 231.383 594.806C232.041 592.777 231.77 590.979 230.568 589.411C229.333 587.861 227.55 586.315 225.219 584.773L216.024 578.635C213.761 577.144 211.805 575.612 210.156 574.04C208.483 572.459 207.214 570.407 206.351 567.884C205.454 565.378 205.536 562.489 206.598 559.217C207.751 555.666 209.69 552.931 212.415 551.012C215.107 549.11 218.261 548.031 221.877 547.775C225.467 547.51 229.19 548.004 233.045 549.255Z" fill="white"/>
<path d="M181.442 592.501L148.96 575.204L152.664 568.248L177.766 581.616L185.362 567.352L164.496 556.241L168.2 549.286L189.066 560.397L197.432 544.686L172.329 531.318L176.033 524.363L208.515 541.66L181.442 592.501Z" fill="white"/>
<path d="M131.38 507.447C132.86 508.793 133.897 510.368 134.492 512.171C135.069 513.993 135.175 515.838 134.81 517.705C134.426 519.555 133.57 521.209 132.242 522.669C130.896 524.148 129.321 525.167 127.516 525.724C125.691 526.263 123.854 526.322 122.002 525.9C120.151 525.477 118.486 524.593 117.007 523.248C115.626 521.991 114.658 520.48 114.102 518.713C113.547 516.946 113.471 515.146 113.876 513.315C114.26 511.466 115.125 509.802 116.471 508.322C117.799 506.862 119.365 505.854 121.17 505.297C122.955 504.721 124.762 504.617 126.592 504.984C128.404 505.37 130 506.191 131.38 507.447Z" fill="white"/>
<path d="M98.4084 443.65C101.426 448.431 102.97 453.227 103.042 458.038C103.114 462.848 101.821 467.37 99.163 471.601C96.4679 475.825 92.6059 479.524 87.577 482.698C82.5482 485.871 77.5589 487.759 72.6091 488.36C67.6226 488.953 62.9736 488.182 58.662 486.047C54.3504 483.912 50.686 480.454 47.6687 475.673C45.3488 471.997 43.9135 468.299 43.363 464.579C42.7756 460.85 43.0467 457.258 44.1764 453.802C45.2692 450.337 47.122 447.102 49.7348 444.097L56.1889 450.052C53.3422 453.236 51.7403 456.643 51.3832 460.274C51.0034 463.919 52.0091 467.636 54.4002 471.425C56.5493 474.83 59.1348 477.203 62.1568 478.544C65.1787 479.884 68.4692 480.252 72.0282 479.645C75.5729 479.016 79.2508 477.499 83.0619 475.094C86.7828 472.745 89.6601 470.11 91.6938 467.186C93.705 464.277 94.7443 461.178 94.8118 457.887C94.8426 454.588 93.7976 451.259 91.677 447.899C89.2859 444.11 86.3747 441.596 82.9433 440.356C79.4894 439.13 75.7128 439.117 71.6138 440.316L69.0159 431.928C72.8527 430.863 76.5813 430.575 80.2016 431.065C83.7851 431.547 87.1447 432.848 90.2803 434.968C93.3792 437.08 96.0885 439.974 98.4084 443.65Z" fill="white"/>
<path d="M29.1564 439.535L25.9862 431.8L71.9928 412.946L62.1032 388.814L69.3947 385.825L82.4544 417.693L29.1564 439.535Z" fill="white"/>
<path d="M65.7662 363.969C66.9734 369.492 66.791 374.527 65.2191 379.074C63.6472 383.621 60.8905 387.431 56.949 390.504C52.9758 393.556 48.0845 395.717 42.2749 396.987C36.4654 398.256 31.1316 398.33 26.2733 397.209C21.3833 396.067 17.2754 393.757 13.9496 390.28C10.6238 386.804 8.35731 382.304 7.1501 376.781C5.94289 371.258 6.12809 366.236 7.7057 361.715C9.27762 357.168 12.0502 353.368 16.0234 350.316C19.9649 347.243 24.8404 345.072 30.6499 343.802C36.4594 342.532 41.8091 342.469 46.6991 343.611C51.5574 344.732 55.6494 347.032 58.9752 350.508C62.2953 353.959 64.559 358.446 65.7662 363.969ZM40.496 388.286C44.8466 387.335 48.476 385.832 51.3842 383.777C54.2868 381.696 56.3277 379.107 57.507 376.01C58.6602 372.919 58.8041 369.394 57.9385 365.434C57.0958 361.578 55.5011 358.529 53.1544 356.285C50.776 354.02 47.8293 352.59 44.3142 351.993C40.7933 351.371 36.8707 351.532 32.5461 352.477C28.1694 353.434 24.514 354.943 21.5797 357.004C18.6454 359.064 16.6016 361.64 15.4484 364.731C14.2691 367.828 14.1122 371.356 14.9778 375.316C15.8262 379.197 17.4396 382.27 19.818 384.535C22.1907 386.773 25.1505 388.201 28.6974 388.817C32.2125 389.414 36.1453 389.237 40.496 388.286Z" fill="white"/>
<path d="M59.9396 314.092C60.0194 318.225 59.3849 321.971 58.0361 325.331C56.6607 328.691 54.6608 331.477 52.0363 333.688C49.3846 335.873 46.2651 337.307 42.6776 337.99L41.1895 329.297C43.4978 328.665 45.4779 327.614 47.1297 326.142C48.7811 324.643 50.0264 322.832 50.8656 320.708C51.7048 318.585 52.1002 316.27 52.0518 313.764C52.007 311.445 51.5923 309.306 50.8077 307.347C50.0231 305.388 48.9265 303.849 47.518 302.73C46.109 301.583 44.4713 301.028 42.6049 301.064C40.632 301.102 39.0713 301.773 37.9229 303.075C36.7473 304.351 35.835 306.142 35.1861 308.449L31.1117 323.29C30.1158 326.963 28.5478 330.021 26.4079 332.463C24.2679 334.904 21.105 336.166 16.9191 336.246C13.4798 336.313 10.5031 335.477 7.98906 333.738C5.44838 332 3.50831 329.597 2.16885 326.529C0.802217 323.435 0.0813316 319.942 0.00619611 316.049C-0.0684248 312.183 0.530959 308.691 1.80435 305.572C3.07722 302.427 4.96028 299.804 7.45351 297.702C9.94623 295.573 12.9448 294.089 16.4492 293.247L18.1419 302.177C15.9905 302.645 14.1412 303.561 12.5938 304.924C11.0194 306.261 9.83765 307.911 9.0487 309.873C8.25976 311.836 7.88716 313.95 7.9309 316.216C7.97104 318.296 8.35444 320.195 9.0811 321.915C9.80775 323.635 10.8074 324.989 12.0801 325.978C13.3527 326.967 14.7756 327.446 16.3486 327.416C18.4815 327.375 20.0922 326.53 21.1806 324.882C22.2418 323.208 23.1197 321.017 23.8143 318.31L26.6084 307.614C27.2778 304.987 28.0859 302.638 29.0328 300.566C29.9791 298.467 31.5033 296.598 33.6054 294.957C35.6803 293.29 38.4374 292.423 41.8768 292.357C45.6094 292.285 48.8281 293.223 51.5329 295.171C54.2105 297.093 56.2616 299.72 57.6861 303.054C59.1102 306.36 59.8614 310.039 59.9396 314.092Z" fill="white"/>
<path d="M2.15637 278.122L7.94127 241.78L15.7233 243.018L11.2526 271.105L27.2117 273.645L30.9278 250.299L38.7099 251.538L34.9937 274.884L52.5724 277.682L57.0431 249.596L64.8251 250.834L59.0402 287.177L2.15637 278.122Z" fill="white"/>
<path d="M65.9348 203.657C65.142 205.493 63.9895 206.985 62.4772 208.133C60.9404 209.27 59.2298 209.969 57.3452 210.23C55.4713 210.467 53.6285 210.194 51.8168 209.412C49.9807 208.619 48.5062 207.459 47.3934 205.933C46.2911 204.382 45.6392 202.663 45.4378 200.775C45.2363 198.887 45.532 197.025 46.3249 195.189C47.0648 193.476 48.1804 192.069 49.6715 190.97C51.1627 189.871 52.8399 189.216 54.7033 189.004C56.5773 188.767 58.4323 189.046 60.2684 189.838C62.0801 190.621 63.5423 191.775 64.6552 193.301C65.7786 194.803 66.4638 196.478 66.7109 198.328C66.9335 200.167 66.6748 201.943 65.9348 203.657Z" fill="white"/>
<path d="M115.774 151.257C112.219 155.653 108.176 158.66 103.645 160.277C99.1139 161.894 94.417 162.126 89.5545 160.972C84.688 159.78 79.9426 157.315 75.3185 153.576C70.6943 149.837 67.3007 145.721 65.1377 141.229C62.9706 136.699 62.2036 132.049 62.8364 127.28C63.4693 122.51 65.563 117.928 69.1176 113.532C71.8506 110.152 74.8895 107.602 78.2344 105.883C81.5753 104.126 85.0637 103.226 88.6997 103.182C92.3318 103.101 95.9909 103.814 99.6771 105.32L96.1182 113.347C92.1871 111.678 88.4453 111.258 84.8926 112.089C81.3192 112.904 78.1242 115.053 75.3073 118.536C72.7756 121.668 71.3616 124.88 71.0654 128.172C70.7692 131.465 71.4812 134.698 73.2013 137.873C74.9382 141.026 77.5589 144.019 81.0633 146.853C84.4848 149.62 87.9067 151.495 91.3291 152.479C94.7308 153.446 98.0001 153.432 101.137 152.436C104.27 151.403 107.086 149.342 109.584 146.252C112.401 142.768 113.844 139.202 113.913 135.555C113.961 131.89 112.757 128.31 110.302 124.816L117.407 119.655C119.651 122.945 121.124 126.382 121.826 129.967C122.524 133.515 122.374 137.115 121.376 140.766C120.374 144.38 118.507 147.877 115.774 151.257Z" fill="white"/>
<path d="M96.9474 84.5929L103.233 79.0806L136.016 116.461L155.624 99.2647L160.82 105.189L134.927 127.898L96.9474 84.5929Z" fill="white"/>
<path d="M181.326 93.86C176.491 96.789 171.667 98.2453 166.856 98.2289C162.045 98.2125 157.548 96.8365 153.366 94.101C149.192 91.3288 145.565 87.3995 142.484 82.3132C139.403 77.2269 137.608 72.2037 137.098 67.2438C136.596 62.2473 137.453 57.6132 139.667 53.3415C141.88 49.0699 145.405 45.4695 150.241 42.5406C155.076 39.6116 159.888 38.1622 164.676 38.1924C169.488 38.2088 173.98 39.6031 178.153 42.3753C182.336 45.1109 185.967 49.0218 189.048 54.1081C192.129 59.1945 193.92 64.2359 194.421 69.2325C194.932 74.1924 194.08 78.8082 191.866 83.0798C189.675 87.3377 186.162 90.9311 181.326 93.86ZM150.142 77.8151C152.449 81.6242 155.045 84.5722 157.931 86.6593C160.839 88.7325 163.949 89.8262 167.26 89.9403C170.558 90.0316 173.941 89.0273 177.407 86.9273C180.783 84.8825 183.153 82.387 184.517 79.4406C185.89 76.4576 186.291 73.2065 185.718 69.6875C185.168 66.1546 183.746 62.4951 181.453 58.7088C179.132 54.877 176.522 51.9061 173.622 49.7963C170.723 47.6864 167.625 46.5858 164.327 46.4945C161.015 46.3804 157.626 47.3733 154.159 49.4733C150.761 51.5319 148.375 54.0527 147.002 57.0357C145.651 60.0049 145.258 63.2673 145.822 66.823C146.395 70.3421 147.835 74.0061 150.142 77.8151Z" fill="white"/>
<path d="M226.411 72.2613C222.525 73.6696 218.774 74.2774 215.159 74.0844C211.534 73.8664 208.252 72.8718 205.313 71.1007C202.39 69.2954 200.026 66.805 198.223 63.6294L205.971 59.4172C207.313 61.3985 208.948 62.9335 210.874 64.0223C212.825 65.102 214.941 65.6966 217.222 65.8062C219.502 65.9157 221.821 65.5434 224.177 64.6893C226.358 63.8988 228.249 62.8163 229.85 61.4419C231.451 60.0676 232.554 58.5332 233.16 56.8388C233.79 55.1353 233.788 53.4061 233.152 51.6511C232.479 49.7959 231.341 48.5348 229.738 47.8678C228.151 47.1666 226.161 46.8809 223.769 47.0104L208.407 47.9406C204.608 48.1826 201.209 47.6846 198.207 46.4466C195.206 45.2085 192.992 42.6214 191.565 38.6853C190.393 35.4512 190.224 32.3639 191.059 29.4235C191.885 26.4581 193.534 23.8466 196.006 21.5892C198.494 19.2976 201.568 17.4886 205.228 16.162C208.863 14.8444 212.362 14.2854 215.725 14.485C219.113 14.6754 222.203 15.6117 224.997 17.2938C227.816 18.9668 230.188 21.3262 232.115 24.3721L224.209 28.8541C223.072 26.9687 221.608 25.5136 219.819 24.4888C218.045 23.4297 216.102 22.8433 213.99 22.7294C211.878 22.6155 209.757 22.9447 207.626 23.717C205.67 24.4258 203.996 25.4014 202.603 26.6438C201.209 27.8863 200.25 29.2693 199.724 30.7929C199.199 32.3165 199.204 33.8179 199.74 35.2971C200.467 37.3028 201.786 38.555 203.697 39.0537C205.624 39.5183 207.98 39.6427 210.767 39.4269L221.792 38.622C224.495 38.4084 226.979 38.4156 229.246 38.6436C231.538 38.8625 233.799 39.7022 236.03 41.1627C238.277 42.589 239.987 44.9192 241.159 48.1534C242.431 51.6633 242.581 55.0126 241.61 58.2011C240.654 61.3555 238.828 64.1445 236.133 66.568C233.462 68.9824 230.222 70.8801 226.411 72.2613Z" fill="white"/>
<path d="M240.152 6.34097L276.402 0L277.76 7.76214L249.745 12.6626L252.53 28.5809L275.816 24.5075L277.174 32.2697L253.888 36.343L256.955 53.8768L284.969 48.9763L286.327 56.7385L250.077 63.0794L240.152 6.34097Z" fill="white"/>
<path d="M342.768 42.3524C340.774 42.1983 338.989 41.5922 337.412 40.5342C335.838 39.4497 334.621 38.0585 333.763 36.3606C332.931 34.6648 332.591 32.8331 332.743 30.8657C332.898 28.8716 333.516 27.1007 334.598 25.5528C335.707 24.007 337.122 22.8326 338.843 22.0294C340.563 21.2263 342.42 20.9018 344.414 21.056C346.275 21.1998 347.968 21.7987 349.491 22.8525C351.014 23.9064 352.178 25.2802 352.984 26.974C353.815 28.6698 354.154 30.5147 354 32.5088C353.848 34.4763 353.231 36.2339 352.148 37.7817C351.092 39.3316 349.73 40.5235 348.06 41.3573C346.393 42.1646 344.629 42.4963 342.768 42.3524Z" fill="white"/>
<path d="M413.988 78.6716C408.823 76.3726 404.875 73.2431 402.142 69.2831C399.41 65.323 397.974 60.8452 397.833 55.8496C397.728 50.8405 398.884 45.6196 401.302 40.1868C403.72 34.7541 406.82 30.4129 410.602 27.1632C414.419 23.9 418.713 21.9585 423.484 21.3384C428.255 20.7184 433.223 21.5579 438.388 23.8569C442.359 25.6245 445.607 27.9021 448.131 30.6897C450.691 33.4637 452.461 36.6015 453.442 40.103C454.458 43.5909 454.715 47.3099 454.212 51.26L445.537 49.8945C446.135 45.6656 445.574 41.9423 443.854 38.7247C442.145 35.4828 439.244 32.9509 435.151 31.129C431.472 29.4915 428.004 28.9548 424.747 29.5188C421.489 30.0828 418.549 31.6055 415.927 34.0869C413.329 36.5791 411.113 39.8838 409.281 44.001C407.491 48.0207 406.563 51.8108 406.496 55.3712C406.44 58.9073 407.298 62.0622 409.07 64.8357C410.877 67.5958 413.595 69.7837 417.225 71.3996C421.318 73.2214 425.136 73.6947 428.678 72.8195C432.23 71.9199 435.378 69.8328 438.12 66.5582L444.94 72.0896C442.341 75.1071 439.401 77.4177 436.119 79.0214C432.871 80.6116 429.355 81.3962 425.57 81.375C421.82 81.3404 417.959 80.4393 413.988 78.6716Z" fill="white"/>
<path d="M474.324 43.6911L481.26 48.3584L453.502 89.6084L475.139 104.169L470.74 110.706L442.167 91.4787L474.324 43.6911Z" fill="white"/>
<path d="M486.934 127.61C482.865 123.686 480.222 119.396 479.006 114.741C477.79 110.086 477.968 105.387 479.542 100.644C481.153 95.8994 484.023 91.387 488.15 87.1064C492.278 82.8258 496.674 79.8039 501.338 78.0407C506.04 76.2768 510.739 75.918 515.435 76.9642C520.131 78.0104 524.514 80.4957 528.583 84.4199C532.652 88.3441 535.286 92.6245 536.483 97.261C537.699 101.916 537.501 106.616 535.89 111.36C534.317 116.103 531.466 120.615 527.338 124.896C523.21 129.176 518.796 132.199 514.094 133.962C509.43 135.726 504.75 136.084 500.054 135.038C495.377 134.01 491.004 131.534 486.934 127.61ZM494.459 93.3568C491.368 96.5625 489.183 99.8271 487.904 103.151C486.645 106.493 486.384 109.779 487.122 113.009C487.878 116.221 489.715 119.233 492.632 122.047C495.473 124.786 498.493 126.438 501.69 127.002C504.925 127.566 508.17 127.12 511.426 125.666C514.7 124.229 517.873 121.918 520.946 118.732C524.056 115.507 526.259 112.223 527.556 108.88C528.854 105.537 529.124 102.26 528.368 99.0492C527.63 95.8188 525.803 92.7968 522.885 89.9832C520.025 87.2251 516.977 85.5643 513.742 85.0007C510.526 84.4556 507.272 84.9108 503.979 86.3662C500.724 87.821 497.55 90.1512 494.459 93.3568Z" fill="white"/>
<path d="M519.873 166.287C517.516 162.892 515.967 159.422 515.227 155.878C514.508 152.319 514.628 148.892 515.586 145.597C516.582 142.308 518.383 139.385 520.99 136.828L527.048 143.238C525.477 145.043 524.412 147.016 523.854 149.157C523.311 151.32 523.278 153.518 523.757 155.75C524.236 157.982 525.19 160.128 526.62 162.187C527.943 164.092 529.474 165.643 531.213 166.838C532.952 168.033 534.718 168.706 536.511 168.856C538.319 169.029 539.99 168.583 541.523 167.519C543.144 166.393 544.071 164.97 544.305 163.249C544.576 161.536 544.342 159.539 543.603 157.26L538.766 142.649C537.558 139.04 537.168 135.626 537.595 132.408C538.022 129.189 539.955 126.386 543.394 123.998C546.22 122.036 549.16 121.081 552.217 121.134C555.295 121.172 558.241 122.096 561.057 123.907C563.91 125.725 566.447 128.232 568.667 131.43C570.873 134.606 572.31 137.845 572.979 141.146C573.664 144.469 573.551 147.697 572.641 150.828C571.747 153.982 570.075 156.88 567.624 159.523L561.265 153.03C562.796 151.448 563.828 149.66 564.359 147.668C564.928 145.682 564.997 143.654 564.566 141.583C564.134 139.513 563.272 137.547 561.979 135.685C560.793 133.976 559.421 132.608 557.863 131.58C556.305 130.551 554.722 129.978 553.114 129.861C551.507 129.744 550.057 130.133 548.765 131.031C547.012 132.248 546.14 133.844 546.148 135.818C546.193 137.8 546.677 140.11 547.6 142.748L551.204 153.199C552.104 155.756 552.734 158.159 553.094 160.409C553.47 162.68 553.238 165.081 552.399 167.612C551.596 170.15 549.782 172.4 546.957 174.362C543.89 176.491 540.691 177.495 537.36 177.373C534.066 177.258 530.902 176.209 527.869 174.224C524.851 172.262 522.185 169.616 519.873 166.287Z" fill="white"/>
<path d="M587.07 162.668L602.535 196.061L595.384 199.373L583.433 173.566L568.769 180.356L578.703 201.808L571.553 205.119L561.619 183.668L545.466 191.148L557.418 216.955L550.267 220.266L534.803 186.873L587.07 162.668Z" fill="white"/>
<path d="M575.659 260.089C575.292 258.123 575.415 256.242 576.029 254.445C576.669 252.644 577.698 251.109 579.116 249.84C580.539 248.598 582.22 247.796 584.16 247.433C586.126 247.066 587.997 247.205 589.772 247.85C591.552 248.521 593.053 249.584 594.274 251.038C595.495 252.491 596.289 254.201 596.656 256.167C596.999 258.002 596.858 259.792 596.234 261.536C595.611 263.28 594.585 264.76 593.157 265.976C591.735 267.219 590.04 268.024 588.074 268.391C586.134 268.753 584.277 268.612 582.502 267.967C580.731 267.348 579.227 266.34 577.99 264.944C576.779 263.542 576.002 261.924 575.659 260.089Z" fill="white"/>
</svg>
