<svg width="180" height="158" viewBox="0 0 180 158" fill="none" xmlns="http://www.w3.org/2000/svg">
<path fill-rule="evenodd" clip-rule="evenodd" d="M22.0896 105.035H0C1.74633 137.034 23.8359 157.99 58.3949 157.99C91.2075 157.99 114.829 141.444 114.829 113.194C114.829 80.4295 87.8312 73.6004 63.8671 67.5387C44.7443 62.7016 27.5532 58.3531 27.5532 41.7048C27.5532 28.6823 38.7053 20.296 57.0877 20.296C75.899 20.296 88.1438 30.6707 89.6756 46.5573H111.796C109.835 18.3076 88.3991 0 57.1183 0C26.2869 0 4.8407 16.9786 4.8407 41.7048C4.8407 73.2087 31.4215 80.4496 55.1655 86.9176C74.3301 92.1382 91.6466 96.8554 91.6466 113.421C91.6466 130.193 77.6453 137.694 58.3949 137.694C36.7444 137.694 23.8359 124.898 22.0896 105.035ZM179.997 69.6765H161.227L122.746 156.342H141.394L179.997 69.6765Z" fill="white"/>
</svg>
