<svg width="183" height="183" viewBox="0 0 183 183" fill="none" xmlns="http://www.w3.org/2000/svg">
<path d="M183 93.6293L182.742 97.8073C182.704 98.4279 182.541 98.9587 182.255 99.3995C181.969 99.8453 181.602 100.176 181.156 100.393C180.709 100.615 180.235 100.71 179.734 100.679C179.247 100.649 178.815 100.515 178.436 100.277C178.062 100.045 177.778 99.733 177.583 99.3422C177.321 99.8693 176.953 100.268 176.478 100.537C176.003 100.812 175.468 100.931 174.873 100.894C174.252 100.856 173.72 100.693 173.274 100.406C172.829 100.12 172.495 99.7277 172.271 99.2304C172.053 98.7384 171.963 98.1672 172.004 97.5168L172.285 92.9664L183 93.6293ZM173.284 97.3418C173.26 97.739 173.31 98.0985 173.434 98.4202C173.563 98.7472 173.759 99.0085 174.021 99.2041C174.283 99.3997 174.597 99.5089 174.964 99.5316C175.321 99.5537 175.651 99.4918 175.954 99.3461C176.257 99.2004 176.502 98.9862 176.688 98.7037C176.875 98.4212 176.98 98.0938 177.003 97.7214L177.195 94.6158L173.467 94.3852L173.284 97.3418ZM178.271 97.5158C178.251 97.8335 178.3 98.1256 178.418 98.3921C178.541 98.6589 178.722 98.8744 178.961 99.0387C179.205 99.2033 179.49 99.2957 179.818 99.316C180.12 99.3347 180.395 99.2794 180.642 99.1502C180.889 99.0209 181.088 98.8314 181.238 98.5815C181.387 98.3365 181.472 98.0477 181.493 97.7151L181.667 94.8925L178.445 94.6932L178.271 97.5158Z" fill="white" fill-opacity="0.18"/>
<path d="M170.569 106.674C170.765 105.643 171.163 104.8 171.764 104.145C172.364 103.495 173.113 103.055 174.011 102.827C174.915 102.599 175.911 102.589 177 102.797C178.088 103.005 179.009 103.381 179.76 103.924C180.517 104.469 181.054 105.154 181.372 105.979C181.69 106.809 181.75 107.74 181.554 108.771C181.357 109.802 180.959 110.643 180.36 111.293C179.759 111.948 179.007 112.389 178.104 112.617C177.205 112.845 176.211 112.856 175.122 112.648C174.034 112.44 173.111 112.064 172.355 111.52C171.603 110.976 171.069 110.289 170.751 109.459C170.433 108.633 170.372 107.705 170.569 106.674ZM176.692 104.174C175.842 104.012 175.077 104.005 174.396 104.153C173.715 104.302 173.15 104.609 172.702 105.076C172.253 105.547 171.955 106.169 171.808 106.941C171.663 107.703 171.716 108.379 171.968 108.969C172.224 109.565 172.644 110.055 173.228 110.44C173.817 110.826 174.537 111.101 175.386 111.263C176.246 111.427 177.018 111.435 177.704 111.287C178.395 111.141 178.964 110.834 179.413 110.368C179.866 109.902 180.166 109.281 180.314 108.504C180.46 107.737 180.403 107.055 180.142 106.458C179.886 105.867 179.46 105.378 178.866 104.992C178.276 104.611 177.551 104.338 176.692 104.174Z" fill="white" fill-opacity="0.18"/>
<path d="M179.5 116.592L179.105 117.86L170.059 115.035L168.576 119.793L167.373 119.417L169.252 113.391L179.5 116.592Z" fill="white" fill-opacity="0.18"/>
<path d="M176.999 124.301L175.675 127.338C175.448 127.858 175.247 128.264 175.071 128.556C174.653 129.253 174.106 129.763 173.428 130.085C172.755 130.41 172.01 130.552 171.193 130.51C170.381 130.47 169.551 130.265 168.704 129.895C167.852 129.523 167.133 129.052 166.547 128.481C165.965 127.912 165.564 127.271 165.344 126.556C165.124 125.841 165.127 125.094 165.354 124.313C165.446 123.99 165.606 123.566 165.835 123.042L167.158 120.005L176.999 124.301ZM166.996 123.549C166.778 124.05 166.637 124.442 166.574 124.724C166.381 125.552 166.538 126.298 167.045 126.965C167.552 127.631 168.292 128.177 169.267 128.603C170.251 129.032 171.158 129.203 171.988 129.115C172.821 129.033 173.472 128.642 173.94 127.94C174.104 127.702 174.295 127.332 174.513 126.831L175.291 125.046L167.774 121.764L166.996 123.549Z" fill="white" fill-opacity="0.18"/>
<path d="M169.728 139.106L167.88 141.854C167.564 142.325 167.293 142.688 167.067 142.943C166.531 143.554 165.901 143.957 165.176 144.152C164.456 144.35 163.697 144.355 162.901 144.167C162.11 143.982 161.33 143.631 160.563 143.114C159.792 142.595 159.169 142.001 158.695 141.334C158.225 140.67 157.946 139.967 157.859 139.224C157.771 138.481 157.909 137.747 158.271 137.02C158.42 136.718 158.654 136.33 158.973 135.855L160.821 133.107L169.728 139.106ZM160.025 136.564C159.72 137.018 159.511 137.378 159.398 137.643C159.059 138.423 159.08 139.186 159.458 139.932C159.837 140.679 160.467 141.35 161.35 141.944C162.24 142.544 163.102 142.875 163.934 142.938C164.768 143.008 165.478 142.74 166.066 142.134C166.269 141.929 166.523 141.6 166.829 141.146L167.915 139.53L161.111 134.948L160.025 136.564Z" fill="white" fill-opacity="0.18"/>
<path d="M162.994 148.66L158.576 153.814L157.62 152.993L161.173 148.847L158.621 146.656L155.651 150.122L154.694 149.301L157.665 145.835L154.938 143.493L151.384 147.639L150.428 146.818L154.846 141.664L162.994 148.66Z" fill="white" fill-opacity="0.18"/>
<path d="M146.022 150.758C146.577 150.245 147.167 149.876 147.791 149.651C148.416 149.426 149.038 149.356 149.657 149.441C150.273 149.529 150.845 149.771 151.374 150.169L150.513 151.26C150.126 151.008 149.718 150.86 149.291 150.815C148.86 150.773 148.432 150.83 148.007 150.985C147.586 151.144 147.193 151.392 146.827 151.73C146.473 152.057 146.204 152.411 146.02 152.791C145.836 153.17 145.758 153.54 145.786 153.901C145.81 154.264 145.952 154.587 146.211 154.868C146.501 155.183 146.829 155.336 147.195 155.33C147.561 155.324 147.956 155.216 148.379 155.008L150.941 153.748C151.591 153.425 152.212 153.271 152.806 153.284C153.4 153.297 153.943 153.571 154.435 154.104C154.853 154.558 155.097 155.06 155.167 155.612C155.239 156.168 155.148 156.726 154.894 157.286C154.643 157.849 154.256 158.373 153.734 158.855C153.208 159.341 152.647 159.686 152.052 159.891C151.459 160.1 150.864 160.159 150.266 160.068C149.672 159.981 149.106 159.742 148.57 159.351L149.438 158.213C149.783 158.477 150.16 158.64 150.569 158.702C150.978 158.764 151.384 158.724 151.787 158.582C152.19 158.446 152.561 158.222 152.901 157.908C153.219 157.615 153.457 157.293 153.615 156.944C153.773 156.602 153.839 156.267 153.813 155.938C153.788 155.617 153.665 155.337 153.446 155.1C153.237 154.873 152.999 154.744 152.733 154.712C152.467 154.68 152.204 154.707 151.944 154.791C151.68 154.879 151.39 155.005 151.074 155.168L149.174 156.122C148.746 156.341 148.333 156.509 147.935 156.627C147.536 156.752 147.096 156.769 146.614 156.68C146.135 156.594 145.682 156.318 145.254 155.854C144.799 155.361 144.536 154.815 144.465 154.217C144.393 153.62 144.497 153.02 144.774 152.419C145.051 151.824 145.467 151.271 146.022 150.758Z" fill="white" fill-opacity="0.18"/>
<path d="M148.246 163.278L147.199 164.094L140.602 155.617L141.649 154.801L148.246 163.278Z" fill="white" fill-opacity="0.18"/>
<path d="M134.853 159.38C135.682 158.848 136.532 158.571 137.403 158.55C138.275 158.528 139.111 158.759 139.912 159.244C140.711 159.735 141.418 160.461 142.033 161.42C142.642 162.37 143.004 163.308 143.118 164.233C143.232 165.165 143.096 166.023 142.713 166.807C142.332 167.595 141.724 168.258 140.887 168.795C139.9 169.429 138.943 169.715 138.018 169.653C137.095 169.595 136.246 169.227 135.469 168.55L136.449 167.592C137.006 168.027 137.605 168.263 138.249 168.299C138.895 168.339 139.535 168.155 140.171 167.747C140.828 167.326 141.285 166.817 141.54 166.221C141.792 165.628 141.854 164.983 141.726 164.285C141.596 163.594 141.295 162.88 140.822 162.143C140.356 161.415 139.834 160.854 139.258 160.462C138.677 160.072 138.064 159.875 137.417 159.87C136.766 159.868 136.111 160.08 135.45 160.504C134.605 161.047 134.11 161.713 133.967 162.502C133.823 163.292 134.008 164.166 134.522 165.124L136.442 163.891L137.034 164.815L133.934 166.805C133.818 166.661 133.696 166.488 133.567 166.287C133.03 165.45 132.711 164.606 132.609 163.755C132.502 162.907 132.636 162.103 133.011 161.343C133.381 160.585 133.996 159.931 134.853 159.38Z" fill="white" fill-opacity="0.18"/>
<path d="M134.07 172.613L132.856 173.186L124.212 167.988L127.793 175.579L126.58 176.152L121.996 166.436L123.21 165.863L131.857 171.068L128.273 163.47L129.486 162.897L134.07 172.613Z" fill="white" fill-opacity="0.18"/>
<path d="M119.067 178.826L113.042 180.534L112.68 179.256L117.429 177.91L116.509 174.658L112.621 175.76L112.259 174.482L116.147 173.38L114.865 168.85L116.142 168.488L119.067 178.826Z" fill="white" fill-opacity="0.18"/>
<path d="M104.063 171.074C105.098 170.909 106.026 170.998 106.846 171.341C107.66 171.685 108.327 172.241 108.847 173.009C109.368 173.783 109.715 174.717 109.89 175.813C110.064 176.908 110.023 177.902 109.767 178.794C109.512 179.691 109.051 180.429 108.383 181.009C107.711 181.59 106.856 181.962 105.821 182.127C104.785 182.292 103.86 182.203 103.045 181.859C102.226 181.516 101.556 180.958 101.035 180.185C100.515 179.417 100.168 178.485 99.994 177.389C99.8198 176.294 99.8602 175.297 100.115 174.4C100.371 173.508 100.835 172.772 101.508 172.191C102.175 171.612 103.027 171.239 104.063 171.074ZM108.491 175.99C108.355 175.135 108.102 174.412 107.731 173.822C107.36 173.231 106.88 172.804 106.289 172.54C105.694 172.278 105.008 172.208 104.233 172.331C103.467 172.453 102.85 172.733 102.381 173.171C101.907 173.614 101.589 174.176 101.426 174.856C101.263 175.542 101.25 176.313 101.386 177.167C101.523 178.032 101.778 178.762 102.149 179.358C102.521 179.958 103.003 180.39 103.593 180.654C104.185 180.922 104.871 180.994 105.651 180.87C106.422 180.747 107.043 180.462 107.515 180.014C107.984 179.572 108.299 179.005 108.461 178.314C108.618 177.629 108.628 176.855 108.491 175.99Z" fill="white" fill-opacity="0.18"/>
<path d="M97.8314 182.866L93.5913 182.997C93.3082 183.006 93.0442 182.994 92.7996 182.962C92.2305 182.89 91.7425 182.706 91.3355 182.41C90.9287 182.119 90.6162 181.74 90.3979 181.274C90.1798 180.813 90.0619 180.294 90.0441 179.718C90.0218 178.997 90.1612 178.358 90.4623 177.801C90.7634 177.244 91.2082 176.832 91.7966 176.565L89.5936 172.371L91.1138 172.324L93.1588 176.232L96.296 176.135L96.1736 172.167L97.5 172.126L97.8314 182.866ZM93.466 177.484C93.2126 177.492 92.9897 177.521 92.7974 177.572C92.3189 177.696 91.9639 177.956 91.7324 178.352C91.496 178.747 91.3853 179.188 91.4003 179.676C91.4154 180.163 91.5531 180.597 91.8134 180.977C92.0688 181.357 92.4392 181.594 92.9244 181.689C93.1195 181.728 93.3438 181.743 93.5971 181.735L96.4661 181.647L96.3349 177.396L93.466 177.484Z" fill="white" fill-opacity="0.18"/>
<path d="M82.0892 182.6L77.9469 182.021C77.3316 181.935 76.8154 181.732 76.3982 181.413C75.9761 181.093 75.6744 180.701 75.4929 180.239C75.3066 179.776 75.2481 179.296 75.3175 178.798C75.3848 178.315 75.5515 177.894 75.8174 177.534C76.0778 177.179 76.4101 176.919 76.8145 176.755C76.3095 176.453 75.9409 176.055 75.7088 175.56C75.4717 175.065 75.3944 174.522 75.4769 173.931C75.5628 173.315 75.7656 172.796 76.0855 172.373C76.4054 171.951 76.8216 171.648 77.3341 171.463C77.841 171.283 78.4169 171.238 79.0618 171.328L83.5733 171.958L82.0892 182.6ZM79.1376 172.619C78.7438 172.564 78.3819 172.586 78.0518 172.686C77.7162 172.79 77.4409 172.965 77.2259 173.211C77.0109 173.457 76.8779 173.762 76.8271 174.127C76.7776 174.482 76.8138 174.816 76.9357 175.129C77.0577 175.443 77.2521 175.703 77.5192 175.911C77.7863 176.119 78.1044 176.249 78.4736 176.301L81.5527 176.731L82.069 173.028L79.1376 172.619ZM78.5811 177.582C78.266 177.538 77.9712 177.564 77.6967 177.661C77.4215 177.764 77.1929 177.928 77.0108 178.153C76.8281 178.384 76.7141 178.662 76.6688 178.987C76.6268 179.287 76.6608 179.566 76.7706 179.822C76.8803 180.079 77.0539 180.291 77.2913 180.46C77.5238 180.628 77.805 180.735 78.1348 180.781L80.9333 181.172L81.3795 177.972L78.5811 177.582Z" fill="white" fill-opacity="0.18"/>
<path d="M70.1009 169.17C71.112 169.448 71.9199 169.913 72.5244 170.565C73.1241 171.215 73.5019 171.997 73.6577 172.912C73.8122 173.831 73.7425 174.826 73.4485 175.896C73.1546 176.965 72.7069 177.853 72.1055 178.56C71.5028 179.271 70.7777 179.752 69.9302 180.004C69.0778 180.254 68.1461 180.24 67.1349 179.962C66.1237 179.683 65.3183 179.219 64.7186 178.569C64.1141 177.918 63.7345 177.132 63.58 176.212C63.4242 175.298 63.4933 174.305 63.7873 173.236C64.0812 172.166 64.5296 171.276 65.1322 170.565C65.7336 169.858 66.4605 169.38 67.3128 169.13C68.1603 168.878 69.0897 168.891 70.1009 169.17ZM72.1018 175.478C72.3311 174.644 72.3991 173.881 72.3055 173.19C72.212 172.498 71.9509 171.911 71.5221 171.426C71.0885 170.941 70.4932 170.593 69.736 170.385C68.9884 170.179 68.3107 170.178 67.7031 170.383C67.0893 170.59 66.5673 170.97 66.1371 171.522C65.7057 172.079 65.3752 172.775 65.1459 173.61C64.9139 174.454 64.844 175.224 64.9362 175.92C65.0271 176.621 65.2869 177.214 65.7157 177.698C66.1431 178.187 66.7378 178.537 67.4998 178.746C68.2522 178.954 68.9359 178.951 69.5511 178.738C70.1601 178.53 70.681 178.144 71.1137 177.582C71.5404 177.024 71.8698 176.323 72.1018 175.478Z" fill="white" fill-opacity="0.18"/>
<path d="M59.5796 177.313L58.3479 176.819L61.8755 168.016L57.2532 166.161L57.7222 164.991L63.5762 167.34L59.5796 177.313Z" fill="white" fill-opacity="0.18"/>
<path d="M52.0972 174.202L49.1755 172.645C48.6754 172.378 48.2866 172.146 48.0094 171.947C47.3477 171.476 46.8825 170.89 46.6136 170.189C46.3424 169.492 46.2595 168.738 46.3648 167.926C46.4678 167.118 46.7366 166.306 47.1711 165.49C47.608 164.669 48.1335 163.988 48.7477 163.447C49.3596 162.911 50.0301 162.561 50.7591 162.397C51.4882 162.234 52.2326 162.295 52.9924 162.582C53.3073 162.699 53.717 162.892 54.2216 163.161L57.1433 164.718L52.0972 174.202ZM53.6258 164.28C53.1433 164.023 52.7641 163.852 52.4883 163.767C51.6789 163.51 50.9226 163.609 50.2194 164.063C49.5163 164.516 48.9148 165.213 48.4148 166.153C47.9102 167.101 47.6694 167.993 47.6925 168.828C47.7088 169.665 48.0482 170.345 48.7108 170.867C48.9352 171.048 49.2886 171.268 49.7712 171.525L51.4887 172.44L55.3434 165.196L53.6258 164.28Z" fill="white" fill-opacity="0.18"/>
<path d="M38.0892 165.871L34.7895 163.298C34.2994 162.916 33.9533 162.483 33.7514 161.997C33.5455 161.509 33.4794 161.019 33.553 160.528C33.6226 160.034 33.8117 159.588 34.1202 159.192C34.4195 158.807 34.7741 158.526 35.184 158.347C35.5869 158.169 36.0045 158.11 36.4369 158.17C36.15 157.656 36.0294 157.127 36.0751 156.583C36.1169 156.035 36.321 155.526 36.6875 155.055C37.0693 154.565 37.5042 154.216 37.9921 154.01C38.48 153.804 38.9921 153.749 39.5282 153.846C40.0573 153.943 40.5787 154.192 41.0924 154.592L44.6862 157.394L38.0892 165.871ZM40.5136 155.749C40.1999 155.504 39.8752 155.343 39.5396 155.264C39.197 155.186 38.8712 155.2 38.562 155.306C38.2529 155.412 37.9853 155.61 37.7593 155.9C37.5394 156.183 37.4041 156.49 37.3533 156.823C37.3025 157.155 37.3408 157.478 37.4683 157.792C37.5959 158.106 37.8067 158.377 38.1007 158.606L40.5535 160.518L42.8487 157.569L40.5136 155.749ZM37.5546 159.77C37.3037 159.574 37.035 159.45 36.7486 159.397C36.4592 159.348 36.1793 159.375 35.909 159.48C35.6356 159.588 35.3981 159.772 35.1965 160.031C35.0102 160.27 34.9006 160.529 34.8677 160.806C34.8349 161.083 34.8791 161.354 35.0006 161.619C35.1181 161.88 35.3082 162.114 35.5709 162.319L37.8001 164.056L39.7838 161.507L37.5546 159.77Z" fill="white" fill-opacity="0.18"/>
<path d="M29.8656 159.199L26.8443 156.219C26.6425 156.02 26.4688 155.82 26.3233 155.621C25.9825 155.159 25.7787 154.679 25.7118 154.18C25.6414 153.684 25.6994 153.197 25.8857 152.717C26.0685 152.241 26.3623 151.797 26.767 151.386C27.2729 150.872 27.831 150.532 28.4413 150.366C29.0517 150.2 29.6565 150.238 30.2557 150.48L31.7678 145.989L32.851 147.057L31.4368 151.236L33.6723 153.441L36.4564 150.614L37.4016 151.546L29.8656 159.199ZM30.7436 152.323C30.563 152.145 30.388 152.003 30.2186 151.899C29.7984 151.638 29.3656 151.561 28.92 151.666C28.4708 151.768 28.0753 151.992 27.7334 152.339C27.3915 152.687 27.173 153.086 27.0778 153.537C26.9792 153.984 27.0631 154.416 27.3298 154.833C27.4364 155.001 27.58 155.174 27.7606 155.352L29.8049 157.369L32.7879 154.339L30.7436 152.323Z" fill="white" fill-opacity="0.18"/>
<path d="M20.4811 149.159L19.3291 147.712L25.4872 138.204L26.3466 139.283L24.911 141.515L27.7678 145.105L30.2579 144.197L31.1173 145.277L20.4811 149.159ZM24.1973 142.619L21.0048 147.578L26.5338 145.554L24.1973 142.619Z" fill="white" fill-opacity="0.18"/>
<path d="M15.3587 142.361L14.6634 141.212L18.9365 132.07L11.7626 136.419L11.0673 135.27L20.2499 129.703L20.9452 130.852L16.6657 139.998L23.846 135.645L24.5412 136.794L15.3587 142.361Z" fill="white" fill-opacity="0.18"/>
<path d="M9.43027 132.109L8.09541 129.077C7.86692 128.558 7.705 128.135 7.60964 127.807C7.38046 127.028 7.37677 126.279 7.59855 125.562C7.81579 124.846 8.2165 124.202 8.80068 123.629C9.38032 123.058 10.0931 122.586 10.9391 122.213C11.7896 121.838 12.6232 121.628 13.4399 121.583C14.252 121.54 14.9952 121.68 15.6694 122.002C16.3436 122.324 16.8908 122.833 17.311 123.529C17.4863 123.816 17.6891 124.221 17.9196 124.744L19.2545 127.776L9.43027 132.109ZM16.7598 125.256C16.5393 124.755 16.347 124.386 16.1827 124.149C15.705 123.446 15.0496 123.055 14.2167 122.977C13.3838 122.899 12.4806 123.074 11.5073 123.503C10.5249 123.937 9.78483 124.489 9.28714 125.159C8.7829 125.828 8.62992 126.572 8.82819 127.392C8.8924 127.674 9.03474 128.065 9.25521 128.566L10.0399 130.348L17.5445 127.038L16.7598 125.256Z" fill="white" fill-opacity="0.18"/>
<path d="M14.2801 114.285C14.4942 115.01 14.564 115.703 14.4894 116.363C14.4148 117.023 14.2027 117.612 13.8531 118.131C13.502 118.644 13.0312 119.051 12.4406 119.35L11.8444 118.095C12.241 117.858 12.5541 117.558 12.7836 117.194C13.0117 116.826 13.15 116.417 13.1985 115.967C13.2422 115.518 13.1936 115.055 13.0528 114.578C12.9161 114.115 12.7183 113.718 12.4592 113.384C12.2002 113.051 11.9031 112.817 11.568 112.683C11.2315 112.544 10.8798 112.529 10.5128 112.637C10.1029 112.759 9.81986 112.985 9.66379 113.316C9.50771 113.648 9.42942 114.05 9.42892 114.522L9.42511 117.379C9.42691 118.104 9.29057 118.731 9.01611 119.258C8.74164 119.785 8.25646 120.152 7.56055 120.358C6.96951 120.533 6.41134 120.529 5.88602 120.347C5.35594 120.167 4.8962 119.839 4.50682 119.363C4.11267 118.888 3.81487 118.309 3.61342 117.627C3.41056 116.94 3.34897 116.284 3.42865 115.659C3.50356 115.035 3.71389 114.475 4.05964 113.978C4.40063 113.483 4.86501 113.081 5.45279 112.773L6.0881 114.055C5.69932 114.248 5.38664 114.514 5.15008 114.854C4.91351 115.194 4.76984 115.576 4.71907 116.001C4.66213 116.422 4.69916 116.855 4.83017 117.298C4.95273 117.713 5.13552 118.069 5.37853 118.366C5.61537 118.659 5.88659 118.866 6.19221 118.988C6.49165 119.107 6.79628 119.121 7.1061 119.029C7.40162 118.942 7.62244 118.786 7.76856 118.561C7.91468 118.336 8.00733 118.088 8.04652 117.818C8.08431 117.542 8.09988 117.226 8.09324 116.87L8.07908 114.742C8.07199 114.262 8.1038 113.817 8.17451 113.407C8.23904 112.994 8.41802 112.59 8.71146 112.198C9.00012 111.806 9.44713 111.521 10.0525 111.342C10.6959 111.152 11.3012 111.157 11.8684 111.357C12.4355 111.558 12.9273 111.915 13.3436 112.43C13.7538 112.942 14.066 113.56 14.2801 114.285Z" fill="white" fill-opacity="0.18"/>
<path d="M8.51951 101.253C8.55965 101.599 8.51517 101.927 8.38608 102.238C8.25642 102.543 8.06063 102.796 7.79871 102.997C7.53679 103.198 7.23304 103.318 6.88744 103.358C6.54184 103.399 6.21859 103.351 5.91768 103.216C5.61183 103.081 5.36328 102.88 5.17204 102.611C4.97528 102.339 4.85683 102.03 4.81669 101.684C4.77885 101.357 4.82533 101.047 4.95614 100.751C5.08695 100.455 5.2836 100.21 5.54609 100.014C5.80801 99.8131 6.11177 99.6927 6.45736 99.6525C6.79802 99.6129 7.12128 99.6604 7.42712 99.7952C7.72746 99.9255 7.97515 100.12 8.17018 100.377C8.36522 100.635 8.48166 100.927 8.51951 101.253Z" fill="white" fill-opacity="0.18"/>
<path d="M0 89.7189L0.241933 85.5399C0.277871 84.9191 0.438076 84.3878 0.722548 83.9459C1.00731 83.499 1.37258 83.1664 1.81835 82.9481C2.26442 82.7248 2.73803 82.6277 3.23919 82.6568C3.72546 82.685 4.15841 82.8172 4.53804 83.0535C4.913 83.2845 5.19872 83.595 5.39519 83.9851C5.65478 83.4571 6.02145 83.0573 6.4952 82.7858C6.96924 82.5093 7.50397 82.3883 8.09941 82.4229C8.71965 82.4588 9.25303 82.6193 9.69954 82.9043C10.1461 83.1893 10.4819 83.58 10.7071 84.0764C10.9276 84.5676 11.019 85.1384 10.9813 85.789L10.7178 90.3404L0 89.7189ZM9.70136 85.9689C9.72436 85.5716 9.67297 85.2123 9.54718 84.8911C9.41672 84.5646 9.22022 84.3041 8.95766 84.1095C8.6951 83.9149 8.38023 83.8069 8.01305 83.7857C7.65578 83.7649 7.32603 83.828 7.02379 83.9749C6.72155 84.1218 6.47759 84.3369 6.29192 84.6201C6.10625 84.9033 6.00264 85.2312 5.98107 85.6036L5.80124 88.71L9.53015 88.9262L9.70136 85.9689ZM4.71427 85.8142C4.73267 85.4964 4.68236 85.2045 4.56334 84.9384C4.43935 84.6721 4.25763 84.4573 4.01815 84.2939C3.77372 84.1303 3.48776 84.0389 3.16027 84.02C2.85759 84.0024 2.58299 84.0587 2.33648 84.1889C2.08997 84.3191 1.89225 84.5095 1.74333 84.76C1.5947 85.0055 1.51075 85.2946 1.49148 85.6273L1.32804 88.4506L4.55083 88.6375L4.71427 85.8142Z" fill="white" fill-opacity="0.18"/>
<path d="M12.3128 76.9896C12.1242 78.0221 11.7322 78.8682 11.1367 79.5279C10.5422 80.1827 9.79644 80.6278 8.89954 80.8632C7.99775 81.0977 7.00171 81.1152 5.91141 80.9157C4.82111 80.7162 3.89813 80.3476 3.14246 79.8098C2.3819 79.2711 1.83932 78.5903 1.5147 77.7673C1.19098 76.9394 1.12342 76.0092 1.31203 74.9767C1.50063 73.9442 1.89222 73.1006 2.48678 72.4458C3.08224 71.7861 3.83086 71.339 4.73264 71.1045C5.62954 70.8691 6.62314 70.8512 7.71344 71.0507C8.80374 71.2502 9.72917 71.6193 10.4897 72.1579C11.2454 72.6957 11.7851 73.3785 12.1088 74.2064C12.4334 75.0294 12.5014 75.9571 12.3128 76.9896ZM6.20882 79.5365C7.05955 79.6921 7.82485 79.6931 8.50473 79.5394C9.1846 79.3857 9.74682 79.0739 10.1914 78.604C10.6369 78.1293 10.9302 77.5053 11.0714 76.7321C11.2109 75.9688 11.1524 75.2931 10.896 74.7051C10.6356 74.1113 10.2118 73.6241 9.62445 73.2436C9.03223 72.8622 8.31076 72.5936 7.46003 72.4379C6.59952 72.2805 5.82689 72.2782 5.14212 72.431C4.45247 72.583 3.88536 72.8939 3.44079 73.3637C2.99134 73.8327 2.69555 74.4562 2.55342 75.2342C2.41309 76.0025 2.47555 76.684 2.74082 77.2787C3.00209 77.8675 3.43128 78.3532 4.02839 78.7355C4.62151 79.112 5.34832 79.379 6.20882 79.5365Z" fill="white" fill-opacity="0.18"/>
<path d="M3.29526 67.1395L3.68101 65.8687L12.7477 68.6254L14.1953 63.8562L15.4009 64.2227L13.5675 70.2628L3.29526 67.1395Z" fill="white" fill-opacity="0.18"/>
<path d="M5.69651 59.4817L6.99738 56.4353C7.22006 55.9138 7.41837 55.5064 7.59232 55.2129C8.00473 54.5129 8.5485 53.999 9.22364 53.671C9.89421 53.3412 10.6381 53.1941 11.4552 53.2298C12.2677 53.2636 13.0991 53.4623 13.9492 53.826C14.8038 54.1915 15.5264 54.6575 16.117 55.2239C16.703 55.7883 17.1086 56.427 17.3338 57.14C17.559 57.8531 17.5614 58.6006 17.341 59.3827C17.2512 59.7068 17.094 60.1318 16.8694 60.6579L15.5685 63.7043L5.69651 59.4817ZM15.704 60.1594C15.9188 59.6562 16.0568 59.2635 16.1179 58.9813C16.3043 58.1522 16.1417 57.4064 15.63 56.744C15.1183 56.0815 14.3735 55.5411 13.3954 55.1228C12.4082 54.7005 11.4999 54.5365 10.6705 54.6307C9.8385 54.7185 9.19084 55.1149 8.72754 55.8202C8.56593 56.0594 8.37769 56.4306 8.16283 56.9338L7.39813 58.7246L14.9393 61.9502L15.704 60.1594Z" fill="white" fill-opacity="0.18"/>
<path d="M12.8596 44.5593L14.6875 41.7972C15.0004 41.3244 15.2688 40.9594 15.4927 40.7021C16.0243 40.0879 16.6517 39.6804 17.3748 39.4796C18.0938 39.276 18.8519 39.2654 19.6493 39.4479C20.4425 39.6276 21.2244 39.9729 21.9952 40.4839C22.7701 40.9975 23.397 41.5861 23.8759 42.2497C24.3508 42.9105 24.6348 43.6119 24.728 44.3539C24.8212 45.0959 24.689 45.8317 24.3314 46.5612C24.1848 46.8638 23.9537 47.2536 23.6381 47.7305L21.8102 50.4926L12.8596 44.5593ZM22.5814 47.0301C22.8833 46.5738 23.0897 46.2124 23.2005 45.9458C23.5332 45.1639 23.5075 44.401 23.1234 43.6572C22.7393 42.9133 22.1039 42.2475 21.2171 41.6596C20.322 41.0663 19.4581 40.7412 18.6253 40.6844C17.7911 40.6207 17.0827 40.8939 16.5 41.5041C16.298 41.7103 16.0461 42.0415 15.7441 42.4977L14.6697 44.1214L21.5069 48.6537L22.5814 47.0301Z" fill="white" fill-opacity="0.18"/>
<path d="M19.6738 34.7357L24.0725 29.5661L25.0318 30.3838L21.4934 34.5421L24.0533 36.724L27.0116 33.2473L27.9709 34.0649L25.0126 37.5416L27.7484 39.8735L31.2868 35.7151L32.246 36.5327L27.8473 41.7023L19.6738 34.7357Z" fill="white" fill-opacity="0.18"/>
<path d="M36.4682 32.7029C35.9168 33.2198 35.3297 33.5929 34.7068 33.8224C34.0839 34.0519 33.4626 34.1266 32.8428 34.0465C32.2267 33.9629 31.6525 33.7242 31.1204 33.3302L31.9738 32.2337C32.363 32.4822 32.7714 32.6276 33.199 32.6697C33.6303 32.7085 34.0577 32.6486 34.4814 32.49C34.9016 32.3278 35.2931 32.0767 35.6559 31.7366C36.0077 31.4067 36.2743 31.0512 36.4555 30.67C36.6368 30.2888 36.7122 29.9182 36.6818 29.5583C36.6549 29.1949 36.5107 28.8734 36.2491 28.5939C35.9569 28.2816 35.6278 28.1301 35.2618 28.1392C34.8958 28.1484 34.5019 28.2586 34.08 28.4701L31.5275 29.7485C30.8804 30.0757 30.2598 30.2349 29.6658 30.226C29.0718 30.2171 28.5268 29.9476 28.0307 29.4176C27.6094 28.9674 27.3621 28.4666 27.2887 27.9151C27.2119 27.3601 27.2987 26.8016 27.5491 26.2396C27.7962 25.6741 28.1791 25.1481 28.6978 24.6619C29.2202 24.1722 29.7784 23.8227 30.3725 23.6134C30.9632 23.4004 31.5578 23.3372 32.1562 23.4237C32.7513 23.5065 33.3186 23.7415 33.858 24.1287L32.9978 25.2725C32.6511 25.0113 32.2731 24.8511 31.8636 24.7919C31.4541 24.7327 31.0483 24.7758 30.6462 24.921C30.2444 25.0592 29.8747 25.2864 29.5374 25.6026C29.2218 25.8985 28.9862 26.2216 28.8305 26.5719C28.6752 26.9153 28.6114 27.251 28.6394 27.5793C28.6676 27.9004 28.7921 28.179 29.0129 28.415C29.2236 28.6401 29.4621 28.7676 29.7283 28.7974C29.9946 28.8273 30.2575 28.7989 30.517 28.7124C30.7802 28.6225 31.0692 28.4947 31.384 28.329L33.2776 27.3616C33.7033 27.1397 34.115 26.9684 34.5128 26.8477C34.9108 26.72 35.3511 26.6992 35.8335 26.7854C36.3126 26.8679 36.7678 27.1398 37.1993 27.6008C37.658 28.091 37.9251 28.6347 38.0005 29.2319C38.0759 29.8292 37.9772 30.4295 37.7043 31.0329C37.4316 31.6293 37.0196 32.186 36.4682 32.7029Z" fill="white" fill-opacity="0.18"/>
<path d="M34.1181 20.2149L35.1591 19.3911L41.8176 27.8197L40.7766 28.6435L34.1181 20.2149Z" fill="white" fill-opacity="0.18"/>
<path d="M47.5487 23.991C46.7243 24.5289 45.8763 24.8119 45.0047 24.8401C44.1332 24.8684 43.2952 24.6431 42.491 24.1643C41.6881 23.6786 40.9759 22.9586 40.3544 22.0042C39.7383 21.0583 39.3695 20.1231 39.2481 19.1988C39.1282 18.2676 39.257 17.4087 39.6346 16.622C40.0094 15.8311 40.6132 15.1641 41.446 14.6208C42.4287 13.9797 43.3829 13.6867 44.3087 13.7418C45.2319 13.7928 46.0842 14.1541 46.8658 14.8259L45.8922 15.7906C45.3329 15.3598 44.7314 15.1287 44.088 15.0972C43.4418 15.0616 42.8022 15.2502 42.1693 15.6631C41.5156 16.0896 41.063 16.6016 40.8114 17.1992C40.564 17.794 40.507 18.4399 40.6404 19.1366C40.7753 19.8265 41.0816 20.5382 41.5593 21.2716C42.0315 21.9968 42.5572 22.5534 43.1364 22.9416C43.7196 23.3271 44.3346 23.5197 44.9811 23.5195C45.6319 23.5165 46.2861 23.3005 46.944 22.8713C47.7851 22.3226 48.2745 21.6529 48.4123 20.8624C48.55 20.0718 48.3585 19.1992 47.8376 18.2446L45.9264 19.4914L45.3279 18.5725L48.4133 16.5597C48.5304 16.703 48.6541 16.8747 48.7843 17.0747C49.3272 17.9082 49.6528 18.7497 49.7612 19.5994C49.8737 20.4463 49.7455 21.2515 49.3764 22.0148C49.0115 22.7754 48.4023 23.4341 47.5487 23.991Z" fill="white" fill-opacity="0.18"/>
<path d="M48.3767 10.6487L49.588 10.0707L58.2514 15.2368L54.6422 7.65935L55.8535 7.08138L60.4733 16.7805L59.2619 17.3585L50.5954 12.1857L54.2078 19.7699L52.9965 20.3479L48.3767 10.6487Z" fill="white" fill-opacity="0.18"/>
<path d="M63.3892 4.32118L69.4082 2.59024L69.7747 3.86677L65.0311 5.23092L65.9638 8.47962L69.8475 7.36276L70.214 8.63929L66.3303 9.75616L67.6294 14.2814L66.354 14.6482L63.3892 4.32118Z" fill="white" fill-opacity="0.18"/>
<path d="M78.3572 11.9988C77.3221 12.1677 76.3942 12.0823 75.5733 11.7425C74.7574 11.402 74.0881 10.8484 73.5653 10.082C73.0418 9.31062 72.6908 8.37751 72.5123 7.28267C72.3339 6.18783 72.3709 5.19392 72.6232 4.30093C72.8747 3.40304 73.3332 2.66288 73.9987 2.08046C74.6691 1.49724 75.5219 1.12114 76.5569 0.952171C77.592 0.783203 78.5175 0.869009 79.3334 1.20959C80.1542 1.54937 80.8264 2.10495 81.35 2.87631C81.8727 3.64277 82.2233 4.57342 82.4017 5.66826C82.5802 6.7631 82.5436 7.75947 82.2921 8.65736C82.0398 9.55035 81.5784 10.2885 80.908 10.8717C80.2425 11.4541 79.3922 11.8298 78.3572 11.9988ZM73.9102 7.09983C74.0495 7.9541 74.3056 8.67588 74.6786 9.26518C75.0516 9.85447 75.5339 10.2798 76.1254 10.5411C76.7218 10.8016 77.4075 10.8685 78.1826 10.742C78.9478 10.6171 79.5641 10.335 80.0314 9.89586C80.5027 9.45097 80.8189 8.88778 80.9798 8.20629C81.1398 7.51989 81.1503 6.74956 81.011 5.89529C80.8702 5.0312 80.6129 4.30205 80.2391 3.70785C79.8645 3.10874 79.3814 2.67853 78.7899 2.41724C78.1976 2.15103 77.5115 2.0816 76.7315 2.20892C75.9613 2.33465 75.341 2.62241 74.8704 3.07221C74.4039 3.51629 74.091 4.08399 73.9318 4.7753C73.7766 5.4609 73.7694 6.23574 73.9102 7.09983Z" fill="white" fill-opacity="0.18"/>
<path d="M84.4174 0.15098L88.657 0.00353416C88.9401 -0.00631285 89.2041 0.00441723 89.4489 0.0357241C90.0182 0.105517 90.507 0.287618 90.915 0.582029C91.323 0.871469 91.6369 1.24879 91.857 1.714C92.0769 2.17424 92.1968 2.6927 92.2169 3.26939C92.2419 3.99025 92.1049 4.62965 91.806 5.18756C91.5071 5.74548 91.0639 6.15909 90.4765 6.4284L92.6957 10.6144L91.1757 10.6673L89.1156 6.76691L85.9788 6.87601L86.1165 10.8432L84.7902 10.8894L84.4174 0.15098ZM88.8036 5.51597C89.0569 5.50716 89.2797 5.47701 89.4719 5.42553C89.9499 5.2994 90.3039 5.03822 90.5338 4.64198C90.7687 4.24557 90.8777 3.80376 90.8608 3.31655C90.8439 2.82935 90.7045 2.39618 90.4427 2.01704C90.1858 1.63773 89.8146 1.40177 89.329 1.30915C89.1337 1.27115 88.9094 1.25655 88.656 1.26536L85.7874 1.36512L85.935 5.61574L88.8036 5.51597Z" fill="white" fill-opacity="0.18"/>
<path d="M100.256 0.300979L104.4 0.863707C105.016 0.947297 105.533 1.14802 105.951 1.46586C106.375 1.78438 106.678 2.17445 106.861 2.63606C107.049 3.09835 107.11 3.57843 107.042 4.07629C106.977 4.55936 106.812 4.98123 106.547 5.34189C106.288 5.69829 105.957 5.95953 105.553 6.12559C106.059 6.42523 106.429 6.82186 106.663 7.31548C106.902 7.80977 106.982 8.35268 106.901 8.9442C106.818 9.56036 106.617 10.0803 106.299 10.5039C105.98 10.9276 105.565 11.2327 105.054 11.4192C104.547 11.6015 103.972 11.6488 103.326 11.5612L98.8126 10.9483L100.256 0.300979ZM103.246 10.2701C103.64 10.3236 104.002 10.3 104.331 10.1991C104.666 10.0941 104.941 9.91799 105.155 9.67095C105.369 9.42391 105.501 9.11801 105.55 8.75324C105.598 8.39833 105.561 8.06442 105.438 7.75153C105.315 7.43863 105.119 7.17865 104.851 6.9716C104.584 6.76455 104.265 6.63595 103.896 6.58579L100.815 6.16751L100.313 9.87189L103.246 10.2701ZM103.783 5.30549C104.098 5.34828 104.393 5.32052 104.667 5.22221C104.942 5.11896 105.17 4.95413 105.351 4.72773C105.533 4.49639 105.646 4.21806 105.69 3.89272C105.731 3.59203 105.696 3.31369 105.585 3.05769C105.474 2.80169 105.3 2.58976 105.062 2.42189C104.829 2.2547 104.547 2.14869 104.217 2.10389L101.417 1.72372L100.983 4.92532L103.783 5.30549Z" fill="white" fill-opacity="0.18"/>
<path d="M112.131 13.5985C111.118 13.3278 110.306 12.8691 109.697 12.2223C109.092 11.5768 108.709 10.7973 108.546 9.88367C108.384 8.96527 108.447 7.97018 108.732 6.89839C109.018 5.82661 109.459 4.93527 110.055 4.22437C110.653 3.50866 111.374 3.02178 112.22 2.76371C113.07 2.50693 114.002 2.51388 115.015 2.78457C116.028 3.05526 116.837 3.51336 117.442 4.15886C118.051 4.80564 118.437 5.58824 118.598 6.50664C118.761 7.42024 118.699 8.41293 118.414 9.48471C118.128 10.5565 117.686 11.4502 117.089 12.1659C116.493 12.8768 115.77 13.3607 114.919 13.6175C114.074 13.8755 113.144 13.8692 112.131 13.5985ZM110.082 7.30535C109.859 8.14163 109.797 8.90505 109.896 9.59561C109.995 10.2862 110.26 10.872 110.693 11.3531C111.13 11.8354 111.728 12.1779 112.487 12.3806C113.236 12.5808 113.913 12.5765 114.52 12.3677C115.132 12.1554 115.651 11.7715 116.077 11.2159C116.504 10.6556 116.829 9.95729 117.052 9.12101C117.278 8.27512 117.342 7.50449 117.244 6.80912C117.148 6.10895 116.884 5.51833 116.451 5.03725C116.02 4.55137 115.423 4.20644 114.659 4.00246C113.905 3.80104 113.222 3.80889 112.608 4.02599C112.001 4.23958 111.483 4.62894 111.054 5.19408C110.632 5.7557 110.308 6.45946 110.082 7.30535Z" fill="white" fill-opacity="0.18"/>
<path d="M122.574 5.34505L123.81 5.83024L120.348 14.6586L124.984 16.4795L124.524 17.6534L118.652 15.3473L122.574 5.34505Z" fill="white" fill-opacity="0.18"/>
<path d="M130.443 8.54555L133.371 10.0919C133.872 10.3566 134.262 10.5877 134.54 10.7852C135.203 11.2537 135.67 11.8381 135.942 12.5383C136.216 13.2341 136.301 13.9881 136.199 14.8003C136.099 15.6081 135.833 16.4211 135.402 17.2394C134.968 18.0621 134.445 18.7448 133.833 19.2877C133.223 19.8261 132.554 20.1785 131.825 20.345C131.097 20.5114 130.352 20.4528 129.591 20.169C129.276 20.053 128.865 19.8615 128.36 19.5945L125.432 18.0482L130.443 8.54555ZM128.951 18.4727C129.435 18.7281 129.815 18.8978 130.091 18.9817C130.901 19.2354 131.657 19.1341 132.359 18.6778C133.06 18.2215 133.659 17.5226 134.156 16.5811C134.657 15.6309 134.894 14.7382 134.868 13.9032C134.849 13.0661 134.507 12.3877 133.842 11.868C133.617 11.6872 133.263 11.4692 132.779 11.2137L131.058 10.3047L127.231 17.5637L128.951 18.4727Z" fill="white" fill-opacity="0.18"/>
<path d="M144.098 16.5057L147.416 19.0537C147.909 19.4322 148.259 19.8634 148.464 20.3472C148.673 20.834 148.743 21.3233 148.673 21.8151C148.607 22.3098 148.421 22.7565 148.116 23.1551C147.819 23.5419 147.467 23.8261 147.058 24.0077C146.656 24.1883 146.239 24.2504 145.806 24.194C146.097 24.7056 146.222 25.2338 146.18 25.7785C146.142 26.3263 145.942 26.837 145.579 27.3107C145.2 27.804 144.768 28.1555 144.282 28.365C143.795 28.5746 143.284 28.6332 142.747 28.5408C142.217 28.4474 141.694 28.2024 141.177 27.8057L137.563 25.0305L144.098 16.5057ZM141.748 26.6449C142.063 26.8871 142.389 27.0464 142.725 27.1227C143.068 27.1981 143.394 27.1818 143.702 27.0737C144.011 26.9657 144.277 26.7656 144.501 26.4735C144.718 26.1894 144.852 25.8809 144.9 25.5481C144.948 25.2153 144.908 24.8925 144.778 24.5797C144.648 24.2668 144.435 23.9969 144.14 23.7698L141.673 21.8757L139.399 24.8417L141.748 26.6449ZM144.677 22.6026C144.93 22.7964 145.199 22.9187 145.486 22.9696C145.776 23.0166 146.055 22.9868 146.325 22.8803C146.597 22.7699 146.834 22.5844 147.033 22.3239C147.218 22.0832 147.326 21.8242 147.356 21.5469C147.387 21.2697 147.341 20.999 147.218 20.735C147.098 20.474 146.906 20.2421 146.642 20.0392L144.4 18.3178L142.435 20.8812L144.677 22.6026Z" fill="white" fill-opacity="0.18"/>
<path d="M152.764 23.4257L155.796 26.395C155.999 26.5933 156.173 26.7919 156.319 26.9908C156.662 27.4514 156.867 27.9311 156.936 28.4299C157.008 28.9251 156.952 29.4129 156.767 29.8933C156.586 30.3702 156.294 30.8148 155.891 31.2273C155.387 31.7429 154.83 32.0849 154.22 32.2533C153.611 32.4218 153.006 32.3862 152.406 32.1465L150.91 36.6426L149.823 35.578L151.222 31.3943L148.978 29.1974L146.204 32.0347L145.256 31.1059L152.764 23.4257ZM151.911 30.3051C152.092 30.4825 152.268 30.6231 152.438 30.7268C152.859 30.986 153.292 31.0622 153.737 30.9553C154.186 30.8519 154.58 30.626 154.921 30.2775C155.262 29.9291 155.479 29.5292 155.572 29.0779C155.669 28.6301 155.584 28.1984 155.316 27.7827C155.208 27.615 155.064 27.4425 154.883 27.265L152.831 25.256L149.859 28.296L151.911 30.3051Z" fill="white" fill-opacity="0.18"/>
<path d="M162.18 33.3896L163.337 34.8328L157.214 44.3631L156.351 43.2865L157.778 41.0492L154.908 37.4703L152.422 38.3867L151.558 37.3101L162.18 33.3896ZM158.488 39.9434L161.662 34.9729L156.141 37.0162L158.488 39.9434Z" fill="white" fill-opacity="0.18"/>
<path d="M167.177 39.9016L167.881 41.0453L163.675 50.2186L170.817 45.8168L171.52 46.9604L162.379 52.5947L161.675 51.4511L165.887 42.2738L158.739 46.6795L158.036 45.5359L167.177 39.9016Z" fill="white" fill-opacity="0.18"/>
<path d="M173.393 50.4901L174.739 53.5167C174.97 54.0348 175.133 54.4575 175.23 54.7847C175.462 55.5634 175.469 56.312 175.249 57.0303C175.035 57.7466 174.637 58.3924 174.055 58.9675C173.477 59.5406 172.766 60.0152 171.921 60.3915C171.072 60.7698 170.239 60.9829 169.423 61.0309C168.611 61.0768 167.867 60.9398 167.192 60.62C166.516 60.3002 165.967 59.7934 165.545 59.0996C165.368 58.8134 165.164 58.4089 164.931 57.8863L163.585 54.8596L173.393 50.4901ZM166.089 57.3704C166.312 57.8703 166.505 58.2387 166.671 58.4755C167.151 59.1762 167.808 59.5643 168.641 59.6396C169.474 59.7148 170.377 59.536 171.348 59.1031C172.329 58.6662 173.067 58.1114 173.562 57.4389C174.064 56.7688 174.214 56.024 174.013 55.2044C173.948 54.9231 173.804 54.5325 173.582 54.0326L172.79 52.2534L165.298 55.5912L166.089 57.3704Z" fill="white" fill-opacity="0.18"/>
<path d="M168.539 68.0617C168.32 67.3382 168.245 66.6462 168.314 65.9856C168.384 65.3249 168.592 64.7341 168.937 64.2131C169.284 63.6968 169.752 63.2868 170.34 62.9832L170.946 64.2339C170.551 64.4736 170.241 64.776 170.014 65.1413C169.788 65.5113 169.653 65.9216 169.608 66.372C169.568 66.821 169.62 67.2835 169.764 67.7594C169.904 68.2211 170.105 68.6176 170.367 68.9487C170.628 69.2799 170.927 69.5114 171.263 69.6432C171.601 69.7797 171.953 69.7923 172.319 69.681C172.728 69.5566 173.009 69.3281 173.163 68.9955C173.316 68.6628 173.392 68.2604 173.389 67.7883L173.371 64.9316C173.363 64.206 173.495 63.5785 173.766 63.0492C174.036 62.5198 174.518 62.1496 175.213 61.9385C175.802 61.7592 176.361 61.7584 176.887 61.9362C177.419 62.1126 177.881 62.4373 178.274 62.9105C178.672 63.3823 178.974 63.9585 179.18 64.6391C179.388 65.3245 179.455 65.9801 179.38 66.606C179.31 67.2304 179.104 67.7922 178.762 68.2913C178.425 68.789 177.963 69.1944 177.378 69.5075L176.733 68.2297C177.12 68.034 177.431 67.7654 177.665 67.4239C177.899 67.0824 178.04 66.6991 178.087 66.2739C178.141 65.852 178.101 65.4198 177.966 64.9771C177.84 64.563 177.655 64.2087 177.41 63.9141C177.171 63.6229 176.898 63.4173 176.591 63.2973C176.291 63.1807 175.986 63.1694 175.677 63.2634C175.382 63.353 175.163 63.5108 175.018 63.7366C174.874 63.9625 174.783 64.2111 174.746 64.4823C174.71 64.7583 174.697 65.0743 174.706 65.4301L174.737 67.5577C174.747 68.038 174.719 68.4833 174.651 68.8938C174.59 69.3076 174.414 69.712 174.124 70.1071C173.838 70.5007 173.393 70.7893 172.789 70.9729C172.147 71.1681 171.542 71.1676 170.973 70.9714C170.404 70.7752 169.91 70.4212 169.49 69.9095C169.076 69.4011 168.759 68.7852 168.539 68.0617Z" fill="white" fill-opacity="0.18"/>
<path d="M174.406 81.0374C174.363 80.6919 174.405 80.3633 174.532 80.0519C174.659 79.7454 174.853 79.4907 175.113 79.288C175.374 79.0853 175.677 78.9625 176.022 78.9197C176.367 78.8769 176.691 78.9219 176.993 79.0549C177.3 79.1873 177.55 79.3868 177.743 79.6536C177.942 79.9246 178.063 80.233 178.105 80.5785C178.146 80.9043 178.102 81.2156 177.973 81.5122C177.845 81.8089 177.65 82.0561 177.389 82.2539C177.129 82.4566 176.826 82.5794 176.48 82.6222C176.14 82.6644 175.817 82.6194 175.51 82.487C175.208 82.359 174.959 82.1668 174.762 81.9106C174.565 81.6543 174.446 81.3632 174.406 81.0374Z" fill="white" fill-opacity="0.18"/>
</svg>
